<svg width="481" height="426" viewBox="0 0 481 426" fill="none" xmlns="http://www.w3.org/2000/svg">
<g filter="url(#filter0_dd_4118_22650)">
<rect x="83.5986" y="10" width="328" height="328" rx="164" fill="#F1F8FF"/>
</g>
<g clip-path="url(#clip0_4118_22650)">
<path d="M440.1 305.049H46.1538" stroke="#1D2029" stroke-width="0.560515" stroke-linecap="round" stroke-linejoin="round"/>
<path d="M47.022 252.455H61.3151V234.519H72.2507V241.245H83.1808V229.474H108.404V240.124H131.105V226.111H149.602V239.563H167.998V209.856H179.034V222.187H188.283V204.812H210.984V241.245H241.257V217.143H260.595V231.156H277.41V212.659H306.837V232.837H321.977V221.066H333.748V228.914H345.518V219.385H352.245V209.856H362.334V236.923H371.554V230.035H374.105V245.169H389.239V224.43H400.169V234.519H406.895V245.169H413.627V230.595H418.671V252.455H438.85" stroke="#1D2029" stroke-width="0.560515" stroke-linecap="round" stroke-linejoin="round"/>
<path d="M291.844 213.365V184.577H246.65V213.365H214.852V305.049H246.65H291.844H323.647V213.365H291.844Z" fill="#1D2029" stroke="#1D2029" stroke-width="0.560515" stroke-linecap="round" stroke-linejoin="round"/>
<path d="M272.77 116.323H264.9L260.965 214.318H276.705L272.77 116.323Z" fill="#1960BB" stroke="#1D2029" stroke-width="0.560515" stroke-miterlimit="10"/>
<path d="M272.72 117.187H264.951C264.727 117.187 264.511 117.097 264.353 116.939C264.194 116.78 264.105 116.565 264.105 116.34C264.106 116.117 264.196 115.903 264.355 115.745C264.513 115.588 264.728 115.5 264.951 115.5H272.72C272.943 115.5 273.158 115.588 273.316 115.745C273.475 115.903 273.565 116.117 273.566 116.34C273.566 116.565 273.477 116.78 273.318 116.939C273.16 117.097 272.944 117.187 272.72 117.187Z" fill="white" stroke="#1D2029" stroke-width="0.560515" stroke-miterlimit="10"/>
<path d="M264.721 120.824L264.575 124.355H273.095L272.949 120.824H264.721Z" fill="white" stroke="#1D2029" stroke-width="0.560515" stroke-miterlimit="10"/>
<path d="M276.166 200.821L276.021 197.29H261.649L261.503 200.821H276.166Z" fill="white" stroke="#1D2029" stroke-width="0.560515" stroke-miterlimit="10"/>
<path d="M262.523 175.441L262.383 178.978H275.286L275.146 175.441H262.523Z" fill="white" stroke="#1D2029" stroke-width="0.560515" stroke-miterlimit="10"/>
<path d="M262.086 186.365L261.946 189.902H275.724L275.583 186.365H262.086Z" fill="white" stroke="#1D2029" stroke-width="0.560515" stroke-miterlimit="10"/>
<path d="M262.96 164.517L262.82 168.053H274.849L274.709 164.517H262.96Z" fill="white" stroke="#1D2029" stroke-width="0.560515" stroke-miterlimit="10"/>
<path d="M264.278 131.749L264.138 135.28H273.532L273.392 131.749H264.278Z" fill="white" stroke="#1D2029" stroke-width="0.560515" stroke-miterlimit="10"/>
<path d="M263.403 153.592L263.263 157.129H274.412L274.266 153.592H263.403Z" fill="white" stroke="#1D2029" stroke-width="0.560515" stroke-miterlimit="10"/>
<path d="M263.841 142.673L263.7 146.205H273.969L273.829 142.673H263.841Z" fill="white" stroke="#1D2029" stroke-width="0.560515" stroke-miterlimit="10"/>
<path d="M337.038 213.365V184.577H291.844V213.365H260.046V305.049H291.844H337.038H368.842V213.365H337.038Z" fill="#1960BB" stroke="#1D2029" stroke-width="0.560515" stroke-linecap="round" stroke-linejoin="round"/>
<path d="M282.982 254.003H270.903V234.682C270.905 233.08 271.542 231.545 272.675 230.413C273.808 229.281 275.344 228.645 276.945 228.645C278.546 228.645 280.082 229.281 281.214 230.413C282.346 231.545 282.982 233.081 282.982 234.682V254.003Z" fill="#1D2029" stroke="#1D2029" stroke-width="0.560515" stroke-linecap="round" stroke-linejoin="round"/>
<path d="M302.723 254.003H290.644V234.682C290.646 233.08 291.283 231.545 292.416 230.413C293.549 229.281 295.085 228.645 296.687 228.645C298.288 228.645 299.823 229.281 300.955 230.413C302.087 231.545 302.723 233.081 302.723 234.682V254.003Z" fill="#1D2029" stroke="#1D2029" stroke-width="0.560515" stroke-linecap="round" stroke-linejoin="round"/>
<path d="M316.423 228.645C318.025 228.645 319.562 229.281 320.695 230.415C321.828 231.548 322.465 233.085 322.465 234.687V254.008H310.386V234.682C310.386 233.079 311.023 231.542 312.156 230.409C313.289 229.276 314.826 228.639 316.428 228.639L316.423 228.645Z" fill="#1D2029" stroke="#1D2029" stroke-width="0.560515" stroke-linecap="round" stroke-linejoin="round"/>
<path d="M342.201 254.003H330.122V234.682C330.123 233.08 330.761 231.545 331.894 230.413C333.027 229.281 334.563 228.645 336.164 228.645C337.765 228.645 339.301 229.281 340.433 230.413C341.565 231.545 342.201 233.081 342.201 234.682V254.003Z" fill="#1D2029" stroke="#1D2029" stroke-width="0.560515" stroke-linecap="round" stroke-linejoin="round"/>
<path d="M361.942 254.003H349.863V234.682C349.865 233.08 350.502 231.545 351.635 230.413C352.768 229.281 354.304 228.645 355.905 228.645C357.506 228.645 359.042 229.281 360.174 230.413C361.306 231.545 361.942 233.081 361.942 234.682V254.003Z" fill="#1D2029" stroke="#1D2029" stroke-width="0.560515" stroke-linecap="round" stroke-linejoin="round"/>
<path d="M302.723 298.872H290.644V279.551C290.646 277.949 291.283 276.414 292.416 275.282C293.549 274.15 295.085 273.514 296.687 273.514C298.288 273.514 299.823 274.15 300.955 275.282C302.087 276.414 302.723 277.95 302.723 279.551V298.872Z" fill="#1D2029" stroke="#1D2029" stroke-width="0.560515" stroke-linecap="round" stroke-linejoin="round"/>
<path d="M285.107 267.332H267.652V305.049H285.107V267.332Z" fill="#1D2029" stroke="#1D2029" stroke-width="0.560515" stroke-linecap="round" stroke-linejoin="round"/>
<path d="M260.046 213.36H214.852V305.049H260.046V213.36Z" fill="#1D2029" stroke="#1D2029" stroke-width="0.560515" stroke-linecap="round" stroke-linejoin="round"/>
<path d="M332.543 298.872H320.464V279.551C320.464 277.95 321.1 276.414 322.232 275.282C323.364 274.15 324.899 273.514 326.5 273.514C327.294 273.513 328.079 273.669 328.812 273.972C329.545 274.275 330.211 274.72 330.773 275.28C331.334 275.841 331.779 276.507 332.083 277.239C332.386 277.972 332.543 278.758 332.543 279.551V298.872Z" fill="#1D2029" stroke="#1D2029" stroke-width="0.560515" stroke-linecap="round" stroke-linejoin="round"/>
<path d="M346.242 273.514C347.845 273.514 349.381 274.151 350.515 275.284C351.648 276.417 352.284 277.954 352.284 279.557V298.877H340.205V279.551C340.207 277.95 340.843 276.416 341.975 275.284C343.107 274.152 344.641 273.516 346.242 273.514Z" fill="white" stroke="#1D2029" stroke-width="0.560515" stroke-linecap="round" stroke-linejoin="round"/>
<path d="M372.02 298.872H359.941V279.551C359.942 277.949 360.579 276.414 361.712 275.282C362.845 274.15 364.381 273.514 365.983 273.514C367.584 273.514 369.12 274.15 370.252 275.282C371.384 276.414 372.02 277.95 372.02 279.551V298.872Z" fill="white" stroke="#1D2029" stroke-width="0.560515" stroke-linecap="round" stroke-linejoin="round"/>
<path d="M373.993 276.44H325.514V305.054H373.993V276.44Z" fill="#1D2029" stroke="#1D2029" stroke-width="0.560515" stroke-linecap="round" stroke-linejoin="round"/>
<path d="M372.973 269.888L385.428 277.169H383.034L370.653 270.975L372.973 269.888Z" fill="white" stroke="#1D2029" stroke-width="0.560515" stroke-miterlimit="10"/>
<path d="M384.122 305.049H361.113V276.44L372.973 269.888L384.122 276.44V305.049Z" fill="#1960BB" stroke="#1D2029" stroke-width="0.560515" stroke-linecap="round" stroke-linejoin="round"/>
<path d="M323.743 277.499H359.342L372.973 269.888H337.235L323.743 277.499Z" fill="#7C7C7C" stroke="#1D2029" stroke-width="0.560515" stroke-linecap="round" stroke-linejoin="round"/>
<path d="M374.739 274.136H371.022V277.499H374.739V274.136Z" fill="#1D2029" stroke="#1D2029" stroke-width="0.560515" stroke-miterlimit="10"/>
<path d="M355.44 284.242H347.116V305.048H355.44V284.242Z" fill="#7C7C7C" stroke="#1D2029" stroke-width="0.560515" stroke-linecap="round" stroke-linejoin="round"/>
<path d="M339.443 284.242H331.119V305.048H339.443V284.242Z" fill="#7C7C7C" stroke="#1D2029" stroke-width="0.560515" stroke-linecap="round" stroke-linejoin="round"/>
<path d="M304.069 189.627H296.267V201.331H304.069V189.627Z" fill="#1D2029" stroke="#1D2029" stroke-width="0.560515" stroke-linecap="round" stroke-linejoin="round"/>
<path d="M312.516 206.533H306.995V214.817H312.516V206.533Z" fill="#1D2029" stroke="#1D2029" stroke-width="0.560515" stroke-linecap="round" stroke-linejoin="round"/>
<path d="M330.239 206.533H324.718V214.817H330.239V206.533Z" fill="#1D2029" stroke="#1D2029" stroke-width="0.560515" stroke-linecap="round" stroke-linejoin="round"/>
<path d="M234.677 254.003H222.598V234.682C222.6 233.08 223.237 231.545 224.37 230.413C225.503 229.281 227.039 228.645 228.64 228.645C230.242 228.645 231.777 229.281 232.909 230.413C234.041 231.545 234.677 233.081 234.677 234.682V254.003Z" fill="white" stroke="#1D2029" stroke-width="0.560515" stroke-linecap="round" stroke-linejoin="round"/>
<path d="M256.139 254.003H244.066V234.682C244.066 233.081 244.702 231.545 245.834 230.413C246.966 229.281 248.501 228.645 250.102 228.645C251.704 228.645 253.24 229.281 254.373 230.413C255.506 231.545 256.143 233.08 256.145 234.682L256.139 254.003Z" fill="white" stroke="#1D2029" stroke-width="0.560515" stroke-linecap="round" stroke-linejoin="round"/>
<path d="M234.677 298.872H222.598V279.551C222.6 277.949 223.237 276.414 224.37 275.282C225.503 274.15 227.039 273.514 228.64 273.514C230.242 273.514 231.777 274.15 232.909 275.282C234.041 276.414 234.677 277.95 234.677 279.551V298.872Z" fill="white" stroke="#1D2029" stroke-width="0.560515" stroke-linecap="round" stroke-linejoin="round"/>
<path d="M256.139 298.872H244.066V279.551C244.066 277.95 244.702 276.414 245.834 275.282C246.966 274.15 248.501 273.514 250.102 273.514C251.704 273.514 253.24 274.15 254.373 275.282C255.506 276.414 256.143 277.949 256.145 279.551L256.139 298.872Z" fill="white" stroke="#1D2029" stroke-width="0.560515" stroke-linecap="round" stroke-linejoin="round"/>
<path d="M213.798 242.103C213.798 257.001 204.987 269.081 194.113 269.081C183.239 269.081 174.427 257.001 174.427 242.103C174.427 227.204 183.239 175.99 194.113 175.99C204.987 175.99 213.798 227.199 213.798 242.103Z" fill="#1960BB"/>
<path d="M205.171 249.894L199.213 252.103L200.407 248.515L197.56 252.713L194.712 253.767L194.51 241.98L204.863 228.225L199.314 233.774L200.256 229.912L197.599 235.489L194.454 238.639L194.135 220.226L193.008 247.075L183.194 236.677L188.58 244.003L183.496 243.443L189.78 245.629L192.891 249.86L192.347 262.803L188.726 260.348L192.235 265.482L190.57 305.049H195.598L194.746 255.645L205.171 249.894Z" fill="#1D2029"/>
<path d="M204.964 220.288C205.115 221.398 204.825 222.523 204.155 223.422C203.485 224.32 202.49 224.919 201.382 225.091C201.231 223.981 201.522 222.856 202.191 221.957C202.861 221.059 203.857 220.459 204.964 220.288Z" fill="white"/>
<path d="M210.9 228.623C211.051 229.733 210.761 230.859 210.091 231.759C209.422 232.658 208.426 233.259 207.318 233.432C207.165 232.321 207.455 231.194 208.125 230.294C208.795 229.395 209.792 228.794 210.9 228.623Z" fill="white"/>
<path d="M210.894 244.855C210.663 245.951 210.011 246.913 209.078 247.534C208.145 248.154 207.006 248.384 205.906 248.173C206.137 247.077 206.789 246.115 207.722 245.495C208.655 244.874 209.794 244.644 210.894 244.855Z" fill="white"/>
<path d="M178.306 244.855C178.537 245.953 179.19 246.915 180.124 247.536C181.058 248.157 182.199 248.386 183.3 248.173C183.069 247.076 182.416 246.113 181.482 245.492C180.548 244.872 179.407 244.643 178.306 244.855Z" fill="white"/>
<path d="M204.045 238.118C204.196 239.228 203.906 240.353 203.236 241.252C202.566 242.15 201.571 242.749 200.463 242.921C200.312 241.811 200.602 240.686 201.272 239.787C201.942 238.889 202.938 238.29 204.045 238.118Z" fill="white"/>
<path d="M202.504 211.219C202.655 212.328 202.365 213.453 201.697 214.351C201.028 215.249 200.034 215.849 198.928 216.022C198.773 214.912 199.062 213.786 199.731 212.887C200.4 211.989 201.396 211.389 202.504 211.219Z" fill="white"/>
<path d="M198.972 218.135C199.123 219.246 198.833 220.371 198.163 221.269C197.493 222.167 196.498 222.767 195.391 222.939C195.239 221.829 195.53 220.703 196.199 219.805C196.869 218.907 197.865 218.307 198.972 218.135Z" fill="white"/>
<path d="M207.363 213.096C207.516 214.207 207.226 215.334 206.556 216.234C205.886 217.133 204.89 217.734 203.781 217.905C203.629 216.794 203.918 215.667 204.588 214.768C205.258 213.868 206.255 213.268 207.363 213.096Z" fill="white"/>
<path d="M180.089 213.096C179.936 214.207 180.225 215.334 180.895 216.234C181.565 217.133 182.562 217.734 183.67 217.905C183.823 216.794 183.533 215.667 182.863 214.768C182.193 213.868 181.197 213.268 180.089 213.096Z" fill="white"/>
<path d="M203.272 202.76C203.428 203.871 203.14 204.999 202.471 205.899C201.801 206.799 200.804 207.399 199.696 207.569C199.546 206.46 199.836 205.335 200.504 204.436C201.172 203.538 202.166 202.936 203.272 202.76Z" fill="white"/>
<path d="M201.534 193.781C201.963 194.816 201.969 195.978 201.55 197.017C201.13 198.056 200.319 198.889 199.292 199.335C198.862 198.301 198.856 197.138 199.276 196.099C199.695 195.06 200.506 194.227 201.534 193.781Z" fill="white"/>
<path d="M189.085 191.433C190.095 191.918 190.875 192.781 191.258 193.835C191.64 194.889 191.595 196.051 191.131 197.071C190.119 196.587 189.338 195.724 188.956 194.67C188.573 193.616 188.619 192.453 189.085 191.433Z" fill="white"/>
<path d="M194.892 202.172C195.631 203.015 196.01 204.115 195.946 205.235C195.882 206.355 195.381 207.404 194.55 208.158C193.811 207.315 193.432 206.215 193.496 205.095C193.56 203.975 194.061 202.926 194.892 202.172Z" fill="white"/>
<path d="M194.583 186.186C195.323 187.029 195.701 188.129 195.637 189.249C195.573 190.369 195.072 191.419 194.241 192.172C193.502 191.329 193.124 190.229 193.188 189.109C193.252 187.99 193.753 186.94 194.583 186.186Z" fill="white"/>
<path d="M181.557 220.288C181.405 221.397 181.695 222.522 182.364 223.42C183.032 224.318 184.027 224.918 185.133 225.091C185.287 223.981 184.999 222.855 184.33 221.956C183.66 221.057 182.664 220.458 181.557 220.288Z" fill="white"/>
<path d="M178.172 230.125C178.02 231.235 178.311 232.36 178.98 233.258C179.65 234.157 180.646 234.756 181.753 234.928C181.904 233.818 181.614 232.693 180.944 231.794C180.274 230.896 179.279 230.296 178.172 230.125Z" fill="white"/>
<path d="M187.151 233.695C186.999 234.806 187.29 235.932 187.959 236.831C188.629 237.731 189.625 238.331 190.733 238.505C190.885 237.393 190.596 236.267 189.926 235.367C189.256 234.467 188.259 233.867 187.151 233.695Z" fill="white"/>
<path d="M189.606 220.063C189.14 221.084 189.093 222.246 189.477 223.3C189.861 224.354 190.644 225.215 191.657 225.697C192.121 224.676 192.165 223.514 191.782 222.461C191.398 221.408 190.617 220.547 189.606 220.063Z" fill="white"/>
<path d="M183.25 256.334C184.368 256.394 185.465 256.012 186.304 255.271C187.142 254.53 187.656 253.488 187.734 252.371C186.616 252.311 185.519 252.693 184.681 253.435C183.842 254.176 183.328 255.217 183.25 256.334Z" fill="white"/>
<path d="M200.688 254.345C200.952 255.435 201.634 256.379 202.587 256.971C203.54 257.564 204.688 257.758 205.783 257.511C205.518 256.422 204.835 255.48 203.882 254.888C202.929 254.297 201.782 254.104 200.688 254.35V254.345Z" fill="white"/>
<path d="M185.273 211.219C185.119 212.331 185.408 213.459 186.078 214.36C186.748 215.261 187.745 215.862 188.855 216.034C189.006 214.923 188.716 213.798 188.046 212.9C187.376 212.001 186.38 211.402 185.273 211.23V211.219Z" fill="white"/>
<path d="M185.245 203.226C185.094 204.336 185.384 205.461 186.054 206.359C186.724 207.258 187.72 207.857 188.827 208.029C188.978 206.919 188.688 205.794 188.018 204.895C187.348 203.997 186.353 203.397 185.245 203.226Z" fill="white"/>
<path d="M240.809 264.193C240.809 273.862 235.086 281.704 228.029 281.704C220.972 281.704 215.255 273.856 215.255 264.193C215.255 254.53 220.972 221.286 228.029 221.286C235.086 221.286 240.809 254.524 240.809 264.193Z" fill="#1960BB"/>
<path d="M235.193 269.254L231.325 270.684L232.104 268.358L230.254 271.082L228.405 271.766L228.276 264.114L234.996 255.185L231.392 258.79L232.003 256.284L230.277 259.899L228.237 261.945L228.029 249.995L227.295 267.422L220.927 260.673L224.425 265.432L221.129 265.062L225.204 266.485L227.222 269.226L226.869 277.628L224.52 276.037L226.796 279.372L225.714 305.049H228.976L228.427 272.982L235.193 269.254Z" fill="#1D2029"/>
<path d="M235.058 250.034C235.151 250.754 234.96 251.481 234.528 252.063C234.095 252.646 233.453 253.037 232.737 253.156C232.645 252.437 232.835 251.709 233.268 251.127C233.701 250.545 234.342 250.153 235.058 250.034Z" fill="white"/>
<path d="M238.909 255.443C239.001 256.163 238.811 256.89 238.378 257.473C237.946 258.055 237.304 258.447 236.588 258.565C236.496 257.846 236.686 257.118 237.119 256.536C237.551 255.954 238.193 255.562 238.909 255.443Z" fill="white"/>
<path d="M238.909 265.981C238.718 266.674 238.305 267.285 237.732 267.719C237.11 268.095 236.379 268.251 235.658 268.161C235.808 267.45 236.232 266.825 236.838 266.423C237.444 266.02 238.183 265.871 238.898 266.009L238.909 265.981Z" fill="white"/>
<path d="M217.761 265.981C217.911 266.691 218.334 267.315 218.938 267.717C219.543 268.12 220.281 268.269 220.995 268.133C220.845 267.422 220.422 266.799 219.817 266.396C219.213 265.994 218.474 265.845 217.761 265.981Z" fill="white"/>
<path d="M234.458 261.609C234.558 262.329 234.371 263.059 233.936 263.642C233.502 264.226 232.856 264.614 232.138 264.725C232.038 264.005 232.225 263.275 232.66 262.692C233.094 262.109 233.74 261.72 234.458 261.609Z" fill="white"/>
<path d="M233.461 244.149C233.553 244.868 233.363 245.596 232.93 246.178C232.497 246.76 231.856 247.152 231.14 247.271C231.039 246.55 231.225 245.818 231.66 245.234C232.094 244.65 232.741 244.26 233.461 244.149Z" fill="white"/>
<path d="M231.174 248.639C231.266 249.358 231.076 250.086 230.643 250.668C230.211 251.25 229.569 251.642 228.853 251.761C228.752 251.04 228.939 250.308 229.373 249.724C229.807 249.139 230.454 248.749 231.174 248.639Z" fill="white"/>
<path d="M236.617 245.371C236.718 246.092 236.53 246.824 236.094 247.407C235.659 247.991 235.011 248.379 234.29 248.487C234.2 247.768 234.391 247.041 234.825 246.46C235.259 245.879 235.901 245.488 236.617 245.371Z" fill="white"/>
<path d="M218.915 245.371C218.816 246.091 219.003 246.821 219.437 247.404C219.871 247.987 220.517 248.376 221.236 248.487C221.336 247.767 221.148 247.037 220.714 246.453C220.28 245.87 219.634 245.481 218.915 245.371Z" fill="white"/>
<path d="M233.976 238.661C234.069 239.381 233.879 240.108 233.446 240.69C233.013 241.273 232.372 241.664 231.656 241.783C231.555 241.062 231.741 240.33 232.176 239.746C232.61 239.162 233.257 238.772 233.976 238.661Z" fill="white"/>
<path d="M232.855 232.849C233.125 233.522 233.124 234.274 232.851 234.946C232.578 235.618 232.055 236.158 231.392 236.453C231.122 235.779 231.124 235.028 231.397 234.356C231.67 233.683 232.192 233.143 232.855 232.849Z" fill="white"/>
<path d="M224.756 231.308C225.413 231.621 225.921 232.181 226.169 232.866C226.416 233.551 226.384 234.306 226.079 234.968C225.427 234.648 224.925 234.087 224.678 233.405C224.432 232.722 224.459 231.97 224.756 231.308Z" fill="white"/>
<path d="M228.523 238.28C229.002 238.828 229.247 239.542 229.205 240.268C229.163 240.995 228.838 241.676 228.298 242.165C227.819 241.617 227.574 240.903 227.615 240.177C227.657 239.45 227.983 238.769 228.523 238.28Z" fill="white"/>
<path d="M228.321 227.905C228.8 228.453 229.046 229.167 229.004 229.893C228.962 230.62 228.636 231.301 228.097 231.79C227.624 231.239 227.383 230.527 227.425 229.802C227.467 229.078 227.788 228.398 228.321 227.905Z" fill="white"/>
<path d="M219.868 250.034C219.776 250.754 219.966 251.481 220.398 252.063C220.831 252.646 221.473 253.037 222.189 253.156C222.281 252.437 222.091 251.709 221.658 251.127C221.225 250.545 220.584 250.153 219.868 250.034Z" fill="white"/>
<path d="M217.671 256.418C217.572 257.14 217.76 257.872 218.195 258.456C218.63 259.04 219.278 259.43 219.998 259.541C220.09 258.82 219.899 258.092 219.465 257.51C219.031 256.927 218.388 256.536 217.671 256.418Z" fill="white"/>
<path d="M223.495 258.739C223.404 259.458 223.596 260.185 224.029 260.766C224.463 261.347 225.105 261.738 225.821 261.855C225.922 261.134 225.734 260.402 225.299 259.819C224.863 259.235 224.215 258.847 223.495 258.739Z" fill="white"/>
<path d="M225.092 249.889C224.789 250.55 224.758 251.304 225.007 251.988C225.256 252.672 225.763 253.231 226.421 253.543C226.682 252.873 226.711 252.135 226.505 251.447C226.217 250.787 225.721 250.24 225.092 249.889Z" fill="white"/>
<path d="M220.967 273.43C221.692 273.463 222.402 273.213 222.947 272.733C223.491 272.253 223.829 271.581 223.887 270.857C223.167 270.864 222.468 271.106 221.897 271.547C221.387 272.054 221.06 272.717 220.967 273.43Z" fill="white"/>
<path d="M232.295 272.141C232.465 272.849 232.908 273.462 233.527 273.846C234.146 274.23 234.891 274.354 235.602 274.192C235.431 273.484 234.988 272.872 234.369 272.488C233.75 272.104 233.005 271.979 232.295 272.141Z" fill="white"/>
<path d="M222.278 244.149C222.186 244.869 222.377 245.597 222.811 246.18C223.245 246.762 223.888 247.153 224.605 247.271C224.707 246.549 224.52 245.816 224.085 245.231C223.649 244.646 223 244.257 222.278 244.149Z" fill="white"/>
<path d="M222.262 238.958C222.169 239.678 222.359 240.405 222.792 240.988C223.225 241.57 223.867 241.962 224.582 242.081C224.675 241.361 224.485 240.634 224.052 240.051C223.619 239.469 222.977 239.077 222.262 238.958Z" fill="white"/>
<path d="M410.538 264.193C410.538 273.862 404.821 281.704 397.764 281.704C390.708 281.704 384.985 273.856 384.985 264.193C384.985 254.53 390.708 221.286 397.764 221.286C404.821 221.286 410.538 254.524 410.538 264.193Z" fill="#1960BB"/>
<path d="M404.911 269.254L401.043 270.684L401.817 268.358L399.967 271.082L398.123 271.766L397.988 264.114L404.709 255.185L401.111 258.79L401.716 256.284L399.995 259.899L397.949 261.945L397.747 249.995L397.013 267.422L390.646 260.673L394.143 265.432L390.842 265.062L394.917 266.485L396.94 269.226L396.587 277.628L394.233 276.037L396.514 279.372L395.433 305.049H398.695L398.14 272.982L404.911 269.254Z" fill="#1D2029"/>
<path d="M404.776 250.034C404.869 250.755 404.678 251.483 404.244 252.065C403.81 252.647 403.167 253.039 402.45 253.156C402.358 252.436 402.549 251.708 402.982 251.125C403.416 250.543 404.059 250.152 404.776 250.034Z" fill="white"/>
<path d="M408.627 255.443C408.727 256.165 408.539 256.897 408.103 257.481C407.668 258.065 407.021 258.455 406.301 258.565C406.208 257.845 406.399 257.117 406.833 256.535C407.267 255.952 407.91 255.561 408.627 255.443Z" fill="white"/>
<path d="M408.627 265.981C408.436 266.675 408.02 267.286 407.444 267.718C406.824 268.083 406.1 268.229 405.387 268.133C405.576 267.439 405.99 266.828 406.564 266.395C407.187 266.034 407.913 265.888 408.627 265.981Z" fill="white"/>
<path d="M387.473 265.981C387.664 266.674 388.078 267.284 388.65 267.718C389.272 268.083 389.998 268.229 390.713 268.133C390.563 267.421 390.139 266.797 389.533 266.394C388.927 265.992 388.188 265.843 387.473 265.981Z" fill="white"/>
<path d="M404.177 261.609C404.276 262.329 404.089 263.059 403.655 263.642C403.221 264.226 402.574 264.614 401.856 264.725C401.756 264.005 401.944 263.275 402.378 262.692C402.812 262.109 403.458 261.72 404.177 261.609Z" fill="white"/>
<path d="M403.179 244.149C403.271 244.868 403.081 245.596 402.648 246.178C402.216 246.76 401.574 247.152 400.858 247.271C400.757 246.55 400.944 245.818 401.378 245.234C401.812 244.65 402.459 244.26 403.179 244.149Z" fill="white"/>
<path d="M400.887 248.639C400.979 249.359 400.788 250.087 400.354 250.67C399.92 251.252 399.277 251.643 398.56 251.761C398.468 251.04 398.659 250.312 399.093 249.73C399.527 249.147 400.17 248.756 400.887 248.639Z" fill="white"/>
<path d="M406.335 245.371C406.426 246.09 406.234 246.817 405.8 247.398C405.367 247.979 404.724 248.369 404.009 248.487C403.908 247.766 404.095 247.034 404.531 246.45C404.966 245.867 405.615 245.479 406.335 245.371Z" fill="white"/>
<path d="M388.628 245.371C388.537 246.09 388.729 246.817 389.163 247.398C389.596 247.979 390.239 248.369 390.954 248.487C391.055 247.766 390.868 247.034 390.432 246.45C389.997 245.867 389.348 245.479 388.628 245.371Z" fill="white"/>
<path d="M403.678 238.661C403.77 239.381 403.58 240.108 403.147 240.69C402.714 241.273 402.073 241.664 401.357 241.783C401.256 241.062 401.442 240.33 401.877 239.746C402.311 239.162 402.958 238.772 403.678 238.661Z" fill="white"/>
<path d="M402.551 232.849C402.821 233.522 402.819 234.274 402.547 234.946C402.274 235.618 401.751 236.158 401.088 236.453C400.818 235.779 400.82 235.028 401.092 234.356C401.365 233.683 401.888 233.143 402.551 232.849Z" fill="white"/>
<path d="M394.468 231.308C395.121 231.627 395.624 232.187 395.872 232.869C396.12 233.552 396.093 234.304 395.797 234.968C395.144 234.649 394.641 234.089 394.393 233.406C394.145 232.723 394.172 231.971 394.468 231.308Z" fill="white"/>
<path d="M398.241 238.28C398.714 238.831 398.955 239.543 398.913 240.268C398.871 240.992 398.55 241.672 398.017 242.165C397.537 241.617 397.292 240.903 397.334 240.177C397.376 239.45 397.702 238.769 398.241 238.28Z" fill="white"/>
<path d="M398.039 227.905C398.519 228.453 398.764 229.167 398.722 229.893C398.68 230.62 398.355 231.301 397.815 231.79C397.336 231.242 397.09 230.528 397.132 229.802C397.174 229.075 397.5 228.394 398.039 227.905Z" fill="white"/>
<path d="M389.581 250.034C389.488 250.755 389.679 251.483 390.113 252.065C390.547 252.647 391.19 253.039 391.907 253.156C391.999 252.436 391.809 251.708 391.375 251.125C390.941 250.543 390.298 250.152 389.581 250.034Z" fill="white"/>
<path d="M387.389 256.418C387.297 257.138 387.487 257.865 387.92 258.448C388.352 259.03 388.994 259.422 389.71 259.541C389.802 258.821 389.612 258.094 389.179 257.511C388.747 256.929 388.105 256.537 387.389 256.418Z" fill="white"/>
<path d="M393.213 258.739C393.112 259.46 393.299 260.192 393.735 260.775C394.17 261.359 394.819 261.747 395.539 261.855C395.63 261.136 395.438 260.409 395.004 259.828C394.571 259.247 393.928 258.856 393.213 258.739Z" fill="white"/>
<path d="M394.805 249.889C394.511 250.552 394.486 251.304 394.734 251.985C394.983 252.667 395.487 253.225 396.139 253.543C396.442 252.881 396.471 252.126 396.222 251.442C395.972 250.758 395.463 250.2 394.805 249.889Z" fill="white"/>
<path d="M390.679 273.43C391.407 273.472 392.121 273.225 392.668 272.743C393.214 272.262 393.549 271.584 393.6 270.857C392.875 270.824 392.165 271.074 391.62 271.554C391.075 272.034 390.738 272.707 390.679 273.43Z" fill="white"/>
<path d="M402.002 272.141C402.172 272.849 402.615 273.462 403.234 273.846C403.853 274.23 404.598 274.354 405.309 274.192C405.138 273.484 404.695 272.872 404.076 272.488C403.457 272.104 402.712 271.979 402.002 272.141Z" fill="white"/>
<path d="M391.997 244.149C391.897 244.87 392.085 245.602 392.52 246.186C392.956 246.771 393.603 247.16 394.323 247.271C394.415 246.551 394.224 245.823 393.791 245.24C393.357 244.658 392.714 244.266 391.997 244.149Z" fill="white"/>
<path d="M391.974 238.958C391.882 239.679 392.072 240.407 392.506 240.989C392.94 241.572 393.583 241.963 394.3 242.081C394.4 241.359 394.212 240.627 393.777 240.043C393.341 239.459 392.694 239.069 391.974 238.958Z" fill="white"/>
<path d="M358.59 65.6924C357.985 66.1814 357.278 66.5281 356.522 66.7069C354.442 67.1721 348.904 66.9423 347.985 69.4759C347.684 70.2381 347.216 70.9237 346.617 71.4831C346.018 72.0424 345.302 72.4615 344.521 72.71C344.521 72.71 340.138 72.9398 339.908 73.8647C339.678 74.7895 338.064 76.3982 338.064 76.3982H413.509C413.509 76.3982 416.048 72.4746 411.895 68.7864C408.257 65.5579 401.621 70.468 400.791 66.4715" stroke="#1D2029" stroke-width="0.560515" stroke-linecap="round" stroke-linejoin="round"/>
<path d="M400.107 60.5971C399.267 57.5647 397.495 53.4674 393.897 51.9428C387.899 49.4036 382.821 52.8676 381.437 56.326C380.052 59.7844 379.15 62.0937 373.825 59.0893C368.5 56.085 363.904 56.3204 362.289 60.244C361.831 61.3855 361.256 62.4768 360.574 63.5006" stroke="#1D2029" stroke-width="0.560515" stroke-linecap="round" stroke-linejoin="round"/>
<path d="M308.48 105.921H334.684C334.684 105.921 336.22 103.55 333.709 101.313C331.198 99.0766 326.31 103.269 327.011 98.5105C327.011 98.5105 326.45 92.6531 322.824 91.1173C321.896 90.6908 320.872 90.515 319.855 90.6075C318.838 90.6999 317.864 91.0574 317.028 91.6442" stroke="#1D2029" stroke-width="0.560515" stroke-linecap="round" stroke-linejoin="round"/>
<path d="M315.285 93.7798C314.449 95.8705 313.889 97.2662 310.683 95.4613C307.477 93.6565 304.68 93.7798 303.704 96.1564C302.729 98.5329 301.462 99.7885 300.212 100.08C298.962 100.371 295.61 100.22 295.05 101.762C294.869 102.223 294.587 102.637 294.226 102.976C293.864 103.314 293.431 103.568 292.959 103.718C292.959 103.718 290.308 103.858 290.157 104.413C289.878 104.987 289.498 105.508 289.036 105.949H304.355" stroke="#1D2029" stroke-width="0.560515" stroke-linecap="round" stroke-linejoin="round"/>
<path d="M418.71 157.667H431.081C431.081 157.667 432.617 155.296 430.106 153.065C427.594 150.834 422.712 155.016 423.407 150.263C423.407 150.263 422.847 144.4 419.22 142.864C415.594 141.328 412.494 143.424 411.687 145.515C410.88 147.606 410.291 149.007 407.08 147.197C403.868 145.386 401.082 145.515 400.101 147.892C399.12 150.268 397.859 151.524 396.615 151.815C395.371 152.107 392.007 151.955 391.453 153.497C391.269 153.957 390.986 154.371 390.623 154.71C390.261 155.048 389.828 155.302 389.356 155.453C389.356 155.453 386.705 155.593 386.554 156.148C386.275 156.723 385.895 157.243 385.433 157.684H414.579" stroke="#1D2029" stroke-width="0.560515" stroke-linecap="round" stroke-linejoin="round"/>
<path d="M273.901 49.2802H118.639C116.648 49.2653 114.733 50.0395 113.311 51.4334C111.89 52.8274 111.079 54.7276 111.055 56.7183V142.118L101.655 152.359L111.055 149.102V157.437C111.079 159.433 111.894 161.337 113.321 162.732C114.749 164.127 116.671 164.898 118.667 164.875H273.929C274.918 164.887 275.899 164.704 276.817 164.337C277.735 163.969 278.571 163.425 279.279 162.734C279.986 162.043 280.55 161.22 280.94 160.311C281.329 159.402 281.535 158.426 281.547 157.437V56.7183C281.535 55.7273 281.328 54.7484 280.937 53.8377C280.546 52.927 279.979 52.1025 279.269 51.4114C278.558 50.7204 277.719 50.1764 276.798 49.8106C275.877 49.4449 274.892 49.2647 273.901 49.2802Z" stroke="#1D2029" stroke-width="0.560515" stroke-linecap="round" stroke-linejoin="round"/>
<path d="M220.344 163.109C220.265 165.255 219.346 167.284 217.786 168.758C216.225 170.233 214.148 171.036 212.001 170.994C209.854 170.952 207.81 170.069 206.308 168.534C204.806 167 203.967 164.937 203.972 162.79C204.056 158.266 212.463 147.375 212.463 147.375C212.463 147.375 220.434 158.586 220.344 163.109Z" fill="#1960BB" stroke="#1D2029" stroke-width="0.560515" stroke-linecap="round" stroke-linejoin="round"/>
<path d="M208.938 154.231C208.904 155.912 208.204 157.511 206.992 158.676C205.779 159.842 204.154 160.478 202.472 160.444C200.791 160.411 199.192 159.711 198.027 158.498C196.861 157.286 196.226 155.66 196.259 153.979C196.326 150.481 202.834 142.051 202.834 142.051C202.834 142.051 209.005 150.728 208.938 154.231Z" fill="#1960BB" stroke="#1D2029" stroke-width="0.560515" stroke-linecap="round" stroke-linejoin="round"/>
<path d="M218.478 161.736C218.45 163.278 217.57 164.539 216.516 164.494C215.462 164.449 214.633 163.205 214.661 161.658C214.689 160.111 215.574 158.855 216.628 158.9C217.682 158.945 218.512 160.189 218.478 161.736Z" fill="white"/>
<path d="M206.651 153.895C206.651 155.178 205.9 156.198 205.026 156.182C204.151 156.165 203.467 155.117 203.495 153.833C203.523 152.549 204.247 151.529 205.121 151.546C205.995 151.563 206.679 152.617 206.651 153.895Z" fill="white"/>
<path d="M231.494 145.969H231.073L223.843 145.941C223.16 145.976 222.482 145.816 221.887 145.481C221.291 145.146 220.803 144.648 220.48 144.046C219.7 142.707 218.938 141.362 218.17 140.016C218.17 140.016 218.17 139.949 218.17 139.96C222.486 139.96 226.813 139.999 231.14 140.005C231.438 140.005 231.555 140.072 231.55 140.397C231.55 142.146 231.55 143.895 231.522 145.644C231.518 145.753 231.509 145.861 231.494 145.969Z" fill="#1960BB" stroke="#1D2029" stroke-width="0.560515" stroke-linecap="round" stroke-linejoin="round"/>
<path d="M237.9 137.881C237.9 138.643 237.9 139.293 237.9 139.983C238.079 139.983 238.225 140.011 238.37 140.011C239.979 140.011 241.593 140.011 243.202 140.011C243.323 139.995 243.447 140.019 243.553 140.08C243.659 140.141 243.743 140.234 243.791 140.347C244.351 141.328 244.912 142.298 245.472 143.273C246.246 144.646 245.472 145.986 243.875 145.98H238.331H237.916C237.916 146.67 237.916 147.337 237.916 147.998L237.832 148.043L232.687 142.998C234.351 141.289 236.072 139.618 237.9 137.881Z" fill="#1960BB" stroke="#1D2029" stroke-width="0.560515" stroke-linecap="round" stroke-linejoin="round"/>
<path d="M225.664 128.447C226.258 130.818 226.841 133.133 227.441 135.538C226.79 135.157 226.219 134.832 225.613 134.484C225.535 134.596 225.462 134.703 225.395 134.815C224.571 136.227 223.747 137.617 222.934 139.058C222.887 139.165 222.808 139.256 222.708 139.316C222.607 139.376 222.49 139.404 222.373 139.394C221.252 139.394 220.176 139.338 219.078 139.394C218.739 139.425 218.398 139.358 218.096 139.201C217.795 139.044 217.544 138.803 217.376 138.508C217.207 138.212 217.128 137.874 217.146 137.534C217.165 137.194 217.281 136.867 217.48 136.592C218.461 135.033 219.352 133.413 220.283 131.816L220.473 131.474L218.646 130.398L225.664 128.447Z" fill="#1960BB" stroke="#1D2029" stroke-width="0.560515" stroke-linecap="round" stroke-linejoin="round"/>
<path d="M223.646 126.015L225.058 123.582C225.888 122.158 226.74 120.734 227.547 119.311C227.875 118.713 228.363 118.219 228.958 117.885C229.553 117.551 230.229 117.39 230.91 117.422C232.345 117.422 233.78 117.422 235.215 117.422H235.551L228.825 128.985L223.646 126.015Z" fill="#1960BB" stroke="#1D2029" stroke-width="0.560515" stroke-linecap="round" stroke-linejoin="round"/>
<path d="M241.712 123.655L243.55 122.607C242.928 125.011 242.328 127.332 241.717 129.68L234.688 127.679L236.527 126.614L235.54 124.877C234.98 123.89 234.419 122.904 233.859 121.923C233.806 121.849 233.777 121.759 233.777 121.668C233.777 121.576 233.806 121.487 233.859 121.413C234.419 120.426 234.98 119.423 235.597 118.442C236.409 117.086 237.951 117.108 238.735 118.442C239.647 120.034 240.557 121.626 241.465 123.218C241.532 123.375 241.616 123.498 241.712 123.655Z" fill="#1960BB" stroke="#1D2029" stroke-width="0.560515" stroke-linecap="round" stroke-linejoin="round"/>
<path d="M239.677 132.102L244.817 129.159C244.901 129.282 244.968 129.383 245.03 129.484L248.651 135.818C249.014 136.398 249.207 137.068 249.207 137.752C249.207 138.436 249.014 139.106 248.651 139.686C247.903 140.971 247.156 142.255 246.409 143.536C246.369 143.609 246.308 143.671 246.285 143.71C244.099 139.854 241.896 135.997 239.677 132.102Z" fill="#1960BB" stroke="#1D2029" stroke-width="0.560515" stroke-linecap="round" stroke-linejoin="round"/>
<path d="M230.546 55.1992C218.595 55.1992 208.91 64.4253 208.91 75.7757V75.9439C208.926 77.4136 209.233 78.8655 209.815 80.2154C210.396 81.5654 211.239 82.7865 212.296 83.8079C213.353 84.8293 214.602 85.6308 215.971 86.1657C217.34 86.7007 218.802 86.9586 220.271 86.9243C221.276 86.8976 222.282 86.9613 223.276 87.1149C225.158 87.4525 226.841 88.4973 227.978 90.0352C228.266 90.4165 228.636 90.7273 229.061 90.9439C229.487 91.1605 229.956 91.2772 230.433 91.2851H230.658C231.135 91.2772 231.604 91.1605 232.03 90.9439C232.455 90.7273 232.825 90.4165 233.113 90.0352C234.25 88.4973 235.933 87.4525 237.815 87.1149C238.809 86.9615 239.815 86.8977 240.82 86.9243C242.289 86.9593 243.751 86.702 245.121 86.1673C246.49 85.6326 247.739 84.8312 248.796 83.8096C249.853 82.788 250.697 81.5666 251.278 80.2164C251.859 78.8661 252.166 77.4138 252.181 75.9439V75.7757C252.181 64.4253 242.501 55.2216 230.546 55.1992Z" fill="#1960BB"/>
<path d="M238.029 80.4839L233.242 81.5209L238.954 74.4023L231.157 81.6722L231.106 82.1767L230.759 74.5369L230.21 86.6047L222.519 79.4358L228.231 86.5543L223.444 85.5173L229.492 88.1293L230.103 88.8916L229.044 112.209H232.48L231.196 84.0712L231.981 83.0959L238.029 80.4839Z" fill="#1D2029"/>
<path d="M224.111 74.223C224.111 74.223 223.388 72.1715 221.869 71.4205C221.047 71.0209 220.184 70.7108 219.296 70.4956C219.296 70.4956 220.103 74.7499 224.111 74.223Z" fill="#1D2029"/>
<path d="M225.972 68.7749C225.972 68.7749 225.854 66.6001 224.57 65.479C223.895 64.8656 223.154 64.328 222.362 63.876C222.362 63.876 221.981 68.1527 225.972 68.7749Z" fill="#1D2029"/>
<path d="M243.096 85.4334C243.096 85.4334 241.717 83.7518 240.024 83.6005C239.117 83.503 238.201 83.503 237.294 83.6005C237.294 83.6005 239.503 87.2719 243.096 85.4334Z" fill="#1D2029"/>
<path d="M216.19 84.9066C216.19 84.9066 217.569 83.2251 219.262 83.0681C220.169 82.9708 221.084 82.9708 221.992 83.0681C221.992 83.0681 219.778 86.7563 216.19 84.9066Z" fill="#1D2029"/>
<path d="M219.907 66.9365C219.907 66.9365 219.789 64.7617 218.511 63.6407C217.834 63.0295 217.094 62.4921 216.303 62.0376C216.303 62.0376 215.916 66.3031 219.907 66.9365Z" fill="#1D2029"/>
<path d="M240.046 68.1582C240.046 68.1582 240.164 65.9834 241.442 64.8623C242.119 64.2504 242.859 63.7129 243.651 63.2593C243.651 63.2593 244.065 67.536 240.046 68.1582Z" fill="#1D2029"/>
<path d="M230.019 65.3613C230.019 65.3613 231.274 63.5733 230.966 61.8918C230.816 60.9929 230.568 60.1132 230.226 59.2686C230.226 59.2686 227.278 62.3962 230.019 65.3613Z" fill="#1D2029"/>
<path d="M231.42 73.5448C231.42 73.5448 231.622 71.3756 230.523 70.0808C229.944 69.3746 229.29 68.7337 228.572 68.1694C228.572 68.1694 227.564 72.3397 231.42 73.5448Z" fill="#1D2029"/>
<path d="M226.246 63.6462C226.246 63.6462 226.897 61.5667 226.089 60.0701C225.67 59.2596 225.164 58.4967 224.582 57.7944C224.582 57.7944 222.726 61.662 226.246 63.6462Z" fill="#1D2029"/>
<path d="M227.894 79.7719C227.894 79.7719 228.544 77.698 227.737 76.1959C227.319 75.3865 226.813 74.6252 226.23 73.9258C226.23 73.9258 224.369 77.7933 227.894 79.7719Z" fill="#1D2029"/>
<path d="M232.759 77.3341C232.759 77.3341 234.598 76.1682 234.951 74.5315C235.156 73.6434 235.263 72.7356 235.27 71.8242C235.27 71.8242 231.352 73.545 232.759 77.3341Z" fill="#1D2029"/>
<path d="M232.978 63.6462C232.978 63.6462 232.328 61.5667 233.135 60.0701C233.555 59.2596 234.06 58.4967 234.643 57.7944C234.643 57.7944 236.498 61.662 232.978 63.6462Z" fill="#1D2029"/>
<path d="M235.546 68.8645C235.546 68.8645 237.378 67.693 237.726 66.0283C237.924 65.1375 238.028 64.2281 238.034 63.3154C238.034 63.3154 234.122 65.0867 235.546 68.8645Z" fill="#1D2029"/>
<path d="M240.489 74.5593C240.489 74.5593 242.597 73.9988 243.443 72.5358C243.906 71.7515 244.282 70.9188 244.564 70.0527C244.564 70.0527 240.31 70.5236 240.489 74.5593Z" fill="#1D2029"/>
<path d="M240.965 79.6377C240.965 79.6377 242.938 80.5514 244.53 79.9404C245.387 79.6299 246.209 79.2277 246.98 78.7409C246.98 78.7409 243.381 76.4036 240.965 79.6377Z" fill="#1D2029"/>
<path d="M243.74 75.0132C243.74 75.0132 245.713 75.9269 247.305 75.3215C248.162 75.0079 248.983 74.6039 249.754 74.1164C249.754 74.1164 246.156 71.779 243.74 75.0132Z" fill="#1D2029"/>
<path d="M216.04 77.9671C216.04 77.9671 217.368 79.6935 219.061 79.8953C219.964 80.0161 220.877 80.0387 221.785 79.9625C221.785 79.9625 219.706 76.2239 216.04 77.9671Z" fill="#1D2029"/>
<path d="M211.751 72.0091C211.751 72.0091 213.074 73.7355 214.767 73.9317C215.672 74.0557 216.587 74.0801 217.497 74.0045C217.497 74.0045 215.389 70.2659 211.751 72.0091Z" fill="#1D2029"/>
<path d="M159.944 144.383C182.814 144.383 201.354 125.842 201.354 102.972C201.354 80.1013 182.814 61.561 159.944 61.561C137.073 61.561 118.533 80.1013 118.533 102.972C118.533 125.842 137.073 144.383 159.944 144.383Z" stroke="#1D2029" stroke-width="0.560515" stroke-linecap="round" stroke-linejoin="round"/>
<path d="M159.944 61.561V102.972H201.354C201.354 91.989 196.992 81.456 189.225 73.69C181.459 65.9239 170.926 61.561 159.944 61.561Z" stroke="#1D2029" stroke-width="0.560515" stroke-linecap="round" stroke-linejoin="round"/>
<path d="M193.849 126.732C198.744 119.777 201.366 111.477 201.354 102.972H159.944L193.849 126.732Z" stroke="#1D2029" stroke-width="0.560515" stroke-linecap="round" stroke-linejoin="round"/>
<path d="M193.849 126.732L159.944 102.972L177.88 140.308C184.275 137.22 189.773 132.547 193.849 126.732Z" stroke="#1D2029" stroke-width="0.560515" stroke-linecap="round" stroke-linejoin="round"/>
<path d="M193.098 90.73H218.882" stroke="#1D2029" stroke-width="0.560515" stroke-linecap="round" stroke-linejoin="round"/>
<path d="M192.733 114.917L218.388 123.711" stroke="#1D2029" stroke-width="0.560515" stroke-linecap="round" stroke-linejoin="round"/>
<path d="M182.841 132.141L197.134 144.601" stroke="#1D2029" stroke-width="0.560515" stroke-linecap="round" stroke-linejoin="round"/>
<path d="M364.088 149.893C362.99 149.894 361.918 149.559 361.016 148.933C360.114 148.308 359.425 147.421 359.042 146.393C358.658 145.364 358.598 144.243 358.87 143.179C359.142 142.116 359.732 141.161 360.562 140.442L418.475 85.6128C419.365 84.8399 420.399 84.25 421.517 83.8766C422.635 83.5033 423.816 83.3538 424.992 83.4368C426.168 83.5199 427.317 83.8337 428.371 84.3604C429.426 84.8872 430.367 85.6165 431.14 86.5068C431.913 87.3971 432.502 88.4309 432.876 89.5492C433.249 90.6675 433.399 91.8484 433.316 93.0244C433.233 94.2004 432.919 95.3486 432.392 96.4033C431.865 97.4581 431.136 98.3988 430.246 99.1716L367.636 148.559C366.655 149.42 365.394 149.895 364.088 149.893Z" fill="#1D2029"/>
<path opacity="0.58" d="M363.841 180.359C364.24 157.482 346.019 138.614 323.143 138.214C300.266 137.815 281.398 156.036 280.998 178.913C280.599 201.789 298.82 220.658 321.697 221.057C344.573 221.456 363.442 203.235 363.841 180.359Z" fill="white"/>
<path d="M322.414 129.619C312.522 129.618 302.851 132.55 294.626 138.045C286.4 143.54 279.989 151.351 276.202 160.49C272.416 169.629 271.425 179.685 273.354 189.387C275.283 199.09 280.046 208.002 287.041 214.997C294.035 221.992 302.947 226.756 312.649 228.687C322.351 230.617 332.407 229.627 341.547 225.841C350.686 222.056 358.498 215.646 363.994 207.421C369.49 199.196 372.423 189.526 372.423 179.633C372.423 166.37 367.154 153.649 357.776 144.27C348.398 134.89 335.678 129.62 322.414 129.619ZM322.414 221.061C314.22 221.061 306.211 218.631 299.398 214.079C292.585 209.527 287.275 203.057 284.14 195.487C281.004 187.917 280.184 179.587 281.782 171.551C283.381 163.515 287.326 156.133 293.12 150.34C298.914 144.546 306.296 140.6 314.332 139.002C322.368 137.403 330.698 138.224 338.268 141.359C345.837 144.495 352.308 149.805 356.86 156.617C361.412 163.43 363.842 171.44 363.842 179.633C363.844 185.075 362.774 190.464 360.693 195.492C358.612 200.52 355.561 205.089 351.714 208.938C347.866 212.787 343.299 215.84 338.271 217.923C333.244 220.006 327.856 221.078 322.414 221.078V221.061Z" fill="#1D2029"/>
<path d="M325.834 129.619C315.942 129.619 306.272 132.552 298.047 138.048C289.822 143.543 283.412 151.355 279.626 160.494C275.841 169.633 274.85 179.689 276.78 189.391C278.71 199.093 283.473 208.004 290.468 214.999C297.463 221.994 306.374 226.757 316.076 228.687C325.778 230.617 335.834 229.626 344.973 225.841C354.112 222.055 361.924 215.645 367.419 207.42C372.915 199.195 375.848 189.525 375.848 179.633C375.848 166.369 370.579 153.647 361.199 144.268C351.82 134.888 339.098 129.619 325.834 129.619ZM325.834 221.061C317.64 221.061 309.63 218.631 302.818 214.079C296.005 209.527 290.695 203.057 287.559 195.487C284.424 187.917 283.603 179.587 285.202 171.551C286.8 163.515 290.746 156.133 296.54 150.34C302.334 144.546 309.715 140.6 317.751 139.002C325.788 137.403 334.117 138.224 341.687 141.359C349.257 144.495 355.727 149.805 360.279 156.617C364.832 163.43 367.261 171.44 367.261 179.633C367.263 185.075 366.193 190.464 364.113 195.492C362.032 200.52 358.98 205.089 355.133 208.938C351.286 212.787 346.718 215.84 341.691 217.923C336.664 220.006 331.275 221.078 325.834 221.078V221.061Z" fill="white" stroke="#1D2029" stroke-width="0.560515" stroke-linecap="round" stroke-linejoin="round"/>
<path d="M82.4238 137.04C84.5301 136.781 86.6626 137.233 88.483 138.323C89.7102 139.039 90.7481 140.039 91.5098 141.238C93.4716 144.5 91.9358 146.361 93.1913 147.69C94.4469 149.018 95.4334 149.595 95.2148 150.554C94.9962 151.512 93.4828 152.28 93.253 152.443C93.0232 152.605 93.679 155.727 93.1745 157.398C92.67 159.068 88.5334 159.029 88.5334 159.029C88.5334 159.029 88.0626 162.084 87.9449 163.081C87.8272 164.079 88.7745 171.786 84.5818 169.415C80.3892 167.044 77.9958 164.696 77.7435 163.698C77.4913 162.7 78.8253 159.589 78.8646 158.614C78.9038 157.639 78.9542 157.185 78.461 156.501C77.9677 155.817 74.5094 153.592 72.9119 149.601C71.3144 145.61 72.9736 140.543 77.0261 138.553C78.7265 137.746 80.5518 137.235 82.4238 137.04Z" fill="white"/>
<mask id="mask0_4118_22650" style="mask-type:luminance" maskUnits="userSpaceOnUse" x="72" y="136" width="24" height="34">
<path d="M82.4238 137.04C84.5301 136.781 86.6626 137.233 88.483 138.323C89.7102 139.039 90.7481 140.039 91.5098 141.238C93.4716 144.5 91.9358 146.361 93.1913 147.69C94.4469 149.018 95.4334 149.595 95.2148 150.554C94.9962 151.512 93.4828 152.28 93.253 152.443C93.0232 152.605 93.679 155.727 93.1745 157.398C92.67 159.068 88.5334 159.029 88.5334 159.029C88.5334 159.029 88.0626 162.084 87.9449 163.081C87.8272 164.079 88.7745 171.786 84.5818 169.415C80.3892 167.044 77.9958 164.696 77.7435 163.698C77.4913 162.7 78.8253 159.589 78.8646 158.614C78.9038 157.639 78.9542 157.185 78.461 156.501C77.9677 155.817 74.5094 153.592 72.9119 149.601C71.3144 145.61 72.9736 140.543 77.0261 138.553C78.7265 137.746 80.5518 137.235 82.4238 137.04Z" fill="white"/>
</mask>
<g mask="url(#mask0_4118_22650)">
<path opacity="0.15" d="M82.4239 137.04C84.5302 136.781 86.6626 137.233 88.483 138.323C89.7102 139.039 90.7481 140.039 91.5098 141.238C93.4716 144.5 91.9358 146.361 93.1913 147.69C94.4469 149.018 95.4334 149.595 95.2148 150.554C94.9962 151.512 93.4828 152.28 93.253 152.443C93.0232 152.605 93.679 155.727 93.1745 157.398C92.6701 159.068 88.5335 159.029 88.5335 159.029C88.5335 159.029 88.0626 162.084 87.9449 163.081C87.8272 164.079 90.6915 168.687 90.9437 171.142C91.1959 173.597 88.7745 171.786 84.5987 169.415C80.4228 167.044 78.0126 164.696 77.7604 163.698C77.5082 162.7 78.8422 159.589 78.8814 158.614C78.9206 157.639 78.9711 157.185 78.4778 156.501C77.9846 155.817 74.5262 153.592 72.9287 149.601C71.3313 145.61 72.9904 140.543 77.0429 138.553C78.7381 137.748 80.5576 137.237 82.4239 137.04Z" fill="#1D2029"/>
</g>
<path d="M82.4238 137.04C84.5301 136.781 86.6626 137.233 88.483 138.323C89.7102 139.039 90.7481 140.039 91.5098 141.238C93.4716 144.5 91.9358 146.361 93.1913 147.69C94.4469 149.018 95.4334 149.595 95.2148 150.554C94.9962 151.512 93.4828 152.28 93.253 152.443C93.0232 152.605 93.679 155.727 93.1745 157.398C92.67 159.068 88.5334 159.029 88.5334 159.029C88.5334 159.029 88.0626 162.084 87.9449 163.081C87.8272 164.079 88.7745 171.786 84.5818 169.415C80.3892 167.044 77.9958 164.696 77.7435 163.698C77.4913 162.7 78.8253 159.589 78.8646 158.614C78.9038 157.639 78.9542 157.185 78.461 156.501C77.9677 155.817 74.5094 153.592 72.9119 149.601C71.3144 145.61 72.9736 140.543 77.0261 138.553C78.7265 137.746 80.5518 137.235 82.4238 137.04Z" stroke="#1D2029" stroke-width="0.560515" stroke-linecap="round" stroke-linejoin="round"/>
<path d="M84.3185 139.624C85.546 138.267 86.6334 137.853 87.4237 137.785C85.8489 137.097 84.1196 136.84 82.4127 137.04C80.5541 137.239 78.7425 137.751 77.0542 138.553C73.0017 140.543 71.3482 145.61 72.94 149.601C74.5319 153.592 77.9847 155.811 78.4891 156.501C78.6599 156.726 78.7837 156.984 78.8535 157.258C82.0876 156.658 82.4912 154.752 82.4912 154.752C82.1602 154.937 81.7948 155.051 81.4176 155.087C81.0405 155.124 80.6599 155.082 80.2996 154.965C79.1113 154.562 77.9454 151.647 78.4947 149.887C79.044 148.127 80.8489 149.534 81.2973 150.61C81.7457 151.686 82.5865 152.37 83.0461 152.039C83.5057 151.708 82.8948 150.559 82.7771 149.724C82.6594 148.889 84.4586 146.86 84.6828 146.025C84.907 145.19 83.9485 144.904 82.7434 144.298C81.5383 143.693 81.8298 142.387 84.3185 139.624Z" fill="#1D2029" stroke="#1D2029" stroke-width="0.560515" stroke-linecap="round" stroke-linejoin="round"/>
<path d="M82.4524 154.993C82.9001 156.049 83.6897 156.923 84.6945 157.476" stroke="#1D2029" stroke-width="0.560515" stroke-linecap="round" stroke-linejoin="round"/>
<path d="M91.0451 147.846C90.4172 147.835 89.7965 147.981 89.2402 148.272" stroke="#1D2029" stroke-width="0.560515" stroke-linecap="round" stroke-linejoin="round"/>
<path d="M91.3586 145.969C91.3586 145.969 89.7836 144.724 88.5056 146.714" stroke="#1D2029" stroke-width="0.560515" stroke-linecap="round" stroke-linejoin="round"/>
<path d="M92.003 153.968C91.63 154.151 91.2062 154.203 90.7996 154.117C90.3931 154.031 90.0273 153.81 89.761 153.491" stroke="#1D2029" stroke-width="0.560515" stroke-linecap="round" stroke-linejoin="round"/>
<path d="M116.055 302.184C114.934 301.865 109.211 298.367 109.211 298.367C109.295 297.68 109.295 296.986 109.211 296.299C109.054 295.822 107.619 294.707 107.619 294.707C107.619 294.707 106.347 283.093 106.347 277.521C106.246 272.882 105.816 268.255 105.058 263.677C104.901 263.038 100.574 218.645 100.574 218.645L99.1444 207.351L84.9746 208.04L70.8665 207.356L69.4315 218.651C69.4315 218.651 65.138 263.043 64.9474 263.682C64.2041 268.26 63.7846 272.885 63.6919 277.521C63.6919 283.093 62.4195 294.707 62.4195 294.707C62.4195 294.707 60.9902 295.828 60.8276 296.299C60.7467 296.986 60.7467 297.68 60.8276 298.367C60.8276 298.367 55.0992 301.865 53.9894 302.184C52.8795 302.504 53.3504 303.473 54.6115 304.095C55.8727 304.718 58.7481 305.048 60.0205 305.048C61.2929 305.048 63.2042 302.806 63.6807 302.504C64.1571 302.201 64.0001 304.095 64.0001 304.095C64.5978 304.097 65.1906 303.989 65.749 303.776C66.3879 303.456 67.5034 304.095 67.6603 302.184C67.8173 300.273 67.8173 298.367 67.8173 298.367C68.4172 297.77 68.9034 297.069 69.2522 296.299C69.5717 295.346 70.205 292.638 70.205 292.638L80.2327 252.225L85.0082 230.119L89.7894 252.225L99.8114 292.638C99.8114 292.638 100.45 295.346 100.77 296.299C101.115 297.07 101.6 297.771 102.199 298.367C102.199 298.367 102.199 300.278 102.362 302.184C102.524 304.09 103.634 303.456 104.268 303.776C104.826 303.989 105.419 304.097 106.016 304.095C106.016 304.095 105.859 302.184 106.336 302.504C106.812 302.823 108.724 305.048 109.996 305.048C111.268 305.048 114.133 304.729 115.405 304.095C116.677 303.462 117.171 302.504 116.055 302.184Z" fill="#1D2029" stroke="#1D2029" stroke-width="0.560515" stroke-linecap="round" stroke-linejoin="round"/>
<path d="M63.9778 171.567C63.9778 171.567 55.2449 201.947 54.8638 202.704C54.4826 203.461 56.7639 203.085 58.9163 203.466C61.0687 203.847 64.1011 202.2 64.4822 201.566C64.8634 200.933 68.0247 191.062 68.0247 191.062L63.9778 171.567Z" fill="white" stroke="#1D2029" stroke-width="0.560515" stroke-linecap="round" stroke-linejoin="round"/>
<path d="M64.3758 181.416L64.0115 180.536" stroke="#1D2029" stroke-width="0.560515" stroke-linecap="round" stroke-linejoin="round"/>
<path d="M67.24 188.344L64.7905 182.425" stroke="#1D2029" stroke-width="0.560515" stroke-linecap="round" stroke-linejoin="round"/>
<path d="M64.168 197.57L64.863 198.069Z" fill="white"/>
<path d="M64.168 197.57L64.863 198.069" stroke="#1D2029" stroke-width="0.560515" stroke-linecap="round" stroke-linejoin="round"/>
<path d="M57.7107 196.197C58.6528 195.843 59.6195 195.558 60.6029 195.345C60.9 195.345 62.2845 196.242 63.3607 197.026" fill="white"/>
<path d="M57.7107 196.197C58.6528 195.843 59.6195 195.558 60.6029 195.345C60.9 195.345 62.2845 196.242 63.3607 197.026" stroke="#1D2029" stroke-width="0.560515" stroke-linecap="round" stroke-linejoin="round"/>
<path d="M104.497 169.796C104.497 169.796 114.497 196.505 114.749 197.514C115.073 198.41 115.203 199.366 115.13 200.316C115.001 201.437 113.23 202.217 112.849 202.217C112.468 202.217 109.688 200.445 108.55 199.935C107.412 199.425 103.993 197.783 103.993 197.783L102.222 192.088L104.497 169.796Z" fill="white" stroke="#1D2029" stroke-width="0.560515" stroke-linecap="round" stroke-linejoin="round"/>
<path d="M105.041 178.462L105.203 177.812" stroke="#1D2029" stroke-width="0.560515" stroke-linecap="round" stroke-linejoin="round"/>
<path d="M102.653 187.856L104.772 179.527" stroke="#1D2029" stroke-width="0.560515" stroke-linecap="round" stroke-linejoin="round"/>
<path d="M108.78 192.621L104.694 195.177" stroke="#1D2029" stroke-width="0.560515" stroke-linecap="round" stroke-linejoin="round"/>
<path d="M78.2821 163.973L63.9778 171.568L70.1771 204.475C70.1771 204.475 69.6726 207.513 70.0538 208.147C70.3134 208.553 70.6575 208.899 71.0627 209.161H99.038C99.038 209.161 100.938 207.39 100.938 207.009V205.383L104.497 169.796L90.3164 164.152L78.2821 163.973Z" fill="white" stroke="#1D2029" stroke-width="0.560515" stroke-linecap="round" stroke-linejoin="round"/>
<path d="M81.4825 165.475L83.3602 170.771L80.821 203.001L84.7951 209.296L88.2198 202.452L84.6886 170.771L86.8914 166.024L83.6909 162.493L81.4825 165.475Z" fill="#1D2029" stroke="#1D2029" stroke-width="0.560515" stroke-linecap="round" stroke-linejoin="round"/>
<path d="M77.9624 160.638L76.8806 164.853L80.7145 169.561L82.9174 164.259L77.9624 160.638Z" fill="white" stroke="#1D2029" stroke-width="0.560515" stroke-linecap="round" stroke-linejoin="round"/>
<path d="M84.9075 164.37L86.6731 169.998L90.3164 164.152L88.6629 160.727L84.9075 164.37Z" fill="white" stroke="#1D2029" stroke-width="0.560515" stroke-linecap="round" stroke-linejoin="round"/>
<path d="M93.9761 201.695L93.4661 197.771L96.8852 198.399L93.9761 201.695Z" fill="white" stroke="#1D2029" stroke-width="0.560515" stroke-linecap="round" stroke-linejoin="round"/>
<path d="M84.6102 189.796C83.54 189.665 82.4814 189.453 81.4433 189.162C80.3222 188.781 79.5431 189.286 80.4287 190.429C81.3143 191.572 84.4812 192.071 84.8624 192.071C84.8624 192.071 85.4958 195.361 87.267 195.995C88.1625 196.351 89.1081 196.564 90.0696 196.628C90.0696 196.628 90.9552 197.895 92.093 198.024C93.2309 198.153 95.8877 200.047 95.8877 200.047L97.1545 197.138L94.3519 194.857L91.5493 190.048L88.8869 189.162L86.6112 188.4L84.6102 189.796Z" fill="#D1D5DB" stroke="#1D2029" stroke-width="0.560515" stroke-linecap="round" stroke-linejoin="round"/>
<path d="M91.6951 193.214L90.5741 194.336C90.6536 194.666 90.6968 195.004 90.703 195.344C90.703 195.855 89.8174 195.855 89.184 195.855C88.5134 195.882 87.8504 195.704 87.2838 195.344C86.7794 194.969 84.7503 193.198 84.7503 193.198L86.9027 189.397L85.0025 190.664C84.5437 191.523 83.9931 192.329 83.3602 193.069C82.5979 193.825 82.3457 192.94 82.3457 192.94C82.3457 192.94 83.108 190.535 83.6125 189.902C84.3315 189.142 85.0931 188.423 85.8938 187.749C86.3954 187.673 86.9056 187.673 87.4071 187.749C88.2984 187.878 90.0696 188.87 90.8263 189.397C91.5276 189.901 92.0578 190.607 92.3453 191.421C92.4212 191.71 92.4645 192.007 92.4742 192.306" fill="#D1D5DB"/>
<path d="M91.6951 193.214L90.5741 194.336C90.6536 194.666 90.6968 195.004 90.703 195.344C90.703 195.855 89.8174 195.855 89.184 195.855C88.5134 195.882 87.8504 195.704 87.2838 195.344C86.7794 194.969 84.7503 193.198 84.7503 193.198L86.9027 189.397L85.0025 190.664C84.5437 191.523 83.9931 192.329 83.3602 193.069C82.5979 193.825 82.3457 192.94 82.3457 192.94C82.3457 192.94 83.108 190.535 83.6125 189.902C84.3315 189.142 85.0931 188.423 85.8938 187.749C86.3954 187.673 86.9056 187.673 87.4071 187.749C88.2984 187.878 90.0696 188.87 90.8263 189.397C91.5276 189.901 92.0578 190.607 92.3453 191.421C92.4212 191.71 92.4645 192.007 92.4742 192.306" stroke="#1D2029" stroke-width="0.560515" stroke-linecap="round" stroke-linejoin="round"/>
<path d="M88.4044 195.743C88.196 195.264 88.1527 194.73 88.2811 194.224C88.8598 193.179 89.4921 192.165 90.1757 191.186" stroke="#1D2029" stroke-width="0.560515" stroke-linecap="round" stroke-linejoin="round"/>
<path d="M87.2672 195.361C87.1143 195.183 86.9721 194.996 86.8412 194.801C86.561 194.408 86.7964 193.915 86.7964 193.495C86.7964 192.733 88.6573 189.655 88.6573 189.655" stroke="#1D2029" stroke-width="0.560515" stroke-linecap="round" stroke-linejoin="round"/>
<path d="M112.204 194.734C112.204 194.734 115.366 199.549 115.242 200.81C115.119 202.071 114.351 204.862 113.213 204.862C109.945 204.604 106.692 204.181 103.466 203.596C99.9236 202.962 97.519 202.71 97.519 202.71L93.9766 201.695L96.3812 195.855L98.6849 196.337C99.7905 196.067 100.915 195.88 102.048 195.776C103.696 195.653 109.189 194.336 109.189 194.336" fill="white"/>
<path d="M112.204 194.734C112.204 194.734 115.366 199.549 115.242 200.81C115.119 202.071 114.351 204.862 113.213 204.862C109.945 204.604 106.692 204.181 103.466 203.596C99.9236 202.962 97.519 202.71 97.519 202.71L93.9766 201.695L96.3812 195.855L98.6849 196.337C99.7905 196.067 100.915 195.88 102.048 195.776C103.696 195.653 109.189 194.336 109.189 194.336" stroke="#1D2029" stroke-width="0.560515" stroke-linecap="round" stroke-linejoin="round"/>
<path d="M98.7013 196.925C98.7617 198.346 98.4093 199.753 97.6868 200.978" stroke="#1D2029" stroke-width="0.560515" stroke-linecap="round" stroke-linejoin="round"/>
<path d="M56.5114 198.657C56.5114 198.657 54.359 203.842 54.2301 204.223C54.1012 204.605 54.6113 207.026 56.6347 206.505C58.6582 205.983 69.4201 204.857 70.8101 204.605L74.3582 203.971H77.1608C78.4275 203.971 81.97 203.971 82.7323 203.719L85.7703 202.704C86.527 202.452 88.1749 201.438 88.3038 201.062C88.4327 200.687 87.9226 200.3 86.6559 200.429C85.3891 200.558 81.4655 200.681 81.4655 200.681C81.4655 200.681 85.008 199.285 86.1514 198.781C87.2949 198.276 86.9081 197.766 86.9081 197.766C86.1743 197.771 85.4466 197.9 84.7557 198.147C83.8701 198.529 75.1373 199.666 75.1373 199.666L74.1228 198.781C74.4113 198.054 74.5835 197.286 74.6328 196.505C74.6328 195.491 74.1228 194.728 73.5118 194.986C72.9009 195.244 72.6262 196.757 72.5029 197.262C72.3796 197.766 71.6958 199.778 71.6958 199.778L71.4435 200.9C71.4435 200.9 66.2532 199.885 64.7173 199.252C63.1815 198.618 60.037 197.733 59.527 197.862C59.0169 197.99 58.008 199.381 57.7558 200.014" fill="white"/>
<path d="M56.5114 198.657C56.5114 198.657 54.359 203.842 54.2301 204.223C54.1012 204.605 54.6113 207.026 56.6347 206.505C58.6582 205.983 69.4201 204.857 70.8101 204.605L74.3582 203.971H77.1608C78.4275 203.971 81.97 203.971 82.7323 203.719L85.7703 202.704C86.527 202.452 88.1749 201.438 88.3038 201.062C88.4327 200.687 87.9226 200.3 86.6559 200.429C85.3891 200.558 81.4655 200.681 81.4655 200.681C81.4655 200.681 85.008 199.285 86.1514 198.781C87.2949 198.276 86.9081 197.766 86.9081 197.766C86.1743 197.771 85.4466 197.9 84.7557 198.147C83.8701 198.529 75.1373 199.666 75.1373 199.666L74.1228 198.781C74.4113 198.054 74.5835 197.286 74.6328 196.505C74.6328 195.491 74.1228 194.728 73.5118 194.986C72.9009 195.244 72.6262 196.757 72.5029 197.262C72.3796 197.766 71.6958 199.778 71.6958 199.778L71.4435 200.9C71.4435 200.9 66.2532 199.885 64.7173 199.252C63.1815 198.618 60.037 197.733 59.527 197.862C59.0169 197.99 58.008 199.381 57.7558 200.014" stroke="#1D2029" stroke-width="0.560515" stroke-linecap="round" stroke-linejoin="round"/>
<path d="M67.8172 200.468C67.8172 200.468 66.9708 202.323 67.9854 203.506" stroke="#1D2029" stroke-width="0.560515" stroke-linecap="round" stroke-linejoin="round"/>
<path d="M69.6219 193.803L73.4726 201.65C73.5419 201.792 73.6496 201.911 73.7834 201.994C73.9172 202.077 74.0717 202.121 74.2293 202.121L88.2758 202.267C88.4147 202.269 88.552 202.237 88.6755 202.173C88.7991 202.11 88.9052 202.017 88.9844 201.903C89.0636 201.789 89.1135 201.657 89.1297 201.519C89.1459 201.381 89.1279 201.241 89.0773 201.112L86.0001 193.119C85.9399 192.956 85.8315 192.815 85.6894 192.715C85.5472 192.615 85.378 192.56 85.2042 192.559H70.3842C70.2373 192.558 70.0927 192.594 69.9644 192.666C69.8361 192.737 69.7283 192.84 69.6516 192.966C69.5749 193.091 69.5319 193.234 69.5267 193.38C69.5214 193.527 69.5542 193.673 69.6219 193.803Z" fill="#1960BB" stroke="#1D2029" stroke-width="0.560515" stroke-linecap="round" stroke-linejoin="round"/>
<path d="M86.6334 200.429C85.3666 200.552 81.443 200.681 81.443 200.681C81.443 200.681 84.9855 199.285 86.1289 198.781C87.2724 198.276 86.8856 197.766 86.8856 197.766C86.1518 197.771 85.4241 197.9 84.7332 198.147C83.8476 198.529 75.1148 199.666 75.1148 199.666L74.1003 198.781C74.3888 198.054 74.5609 197.286 74.6103 196.505C74.6103 195.491 74.1003 194.728 73.4893 194.986C72.8783 195.244 72.6037 196.757 72.4804 197.262C72.3571 197.766 71.6957 199.778 71.6957 199.778L71.4434 200.9L70.1094 200.625C69.8582 201.504 69.8816 202.439 70.1767 203.304C70.3202 203.742 70.4867 204.173 70.6755 204.593H70.81L74.3581 203.96H77.1607C78.4274 203.96 81.9699 203.96 82.7322 203.708L85.7702 202.693C86.5269 202.441 88.1748 201.426 88.3037 201.051C88.4326 200.675 87.9001 200.3 86.6334 200.429Z" fill="#D1D5DB" stroke="#1D2029" stroke-width="0.560515" stroke-linecap="round" stroke-linejoin="round"/>
<path d="M87.799 201.258C87.799 201.258 85.1702 202.508 84.7947 202.508C84.4191 202.508 79.9182 203.007 79.9182 203.007" stroke="#1D2029" stroke-width="0.560515" stroke-linecap="round" stroke-linejoin="round"/>
</g>
<defs>
<filter id="filter0_dd_4118_22650" x="43.5986" y="2" width="408" height="424" filterUnits="userSpaceOnUse" color-interpolation-filters="sRGB">
<feFlood flood-opacity="0" result="BackgroundImageFix"/>
<feColorMatrix in="SourceAlpha" type="matrix" values="0 0 0 0 0 0 0 0 0 0 0 0 0 0 0 0 0 0 127 0" result="hardAlpha"/>
<feMorphology radius="32" operator="erode" in="SourceAlpha" result="effect1_dropShadow_4118_22650"/>
<feOffset dy="48"/>
<feGaussianBlur stdDeviation="36"/>
<feComposite in2="hardAlpha" operator="out"/>
<feColorMatrix type="matrix" values="0 0 0 0 0 0 0 0 0 0.45 0 0 0 0 1 0 0 0 0.1 0"/>
<feBlend mode="normal" in2="BackgroundImageFix" result="effect1_dropShadow_4118_22650"/>
<feColorMatrix in="SourceAlpha" type="matrix" values="0 0 0 0 0 0 0 0 0 0 0 0 0 0 0 0 0 0 127 0" result="hardAlpha"/>
<feOffset/>
<feGaussianBlur stdDeviation="4"/>
<feComposite in2="hardAlpha" operator="out"/>
<feColorMatrix type="matrix" values="0 0 0 0 0.0784314 0 0 0 0 0.572549 0 0 0 0 0.937255 0 0 0 0.25 0"/>
<feBlend mode="normal" in2="effect1_dropShadow_4118_22650" result="effect2_dropShadow_4118_22650"/>
<feBlend mode="normal" in="SourceGraphic" in2="effect2_dropShadow_4118_22650" result="shape"/>
</filter>
<clipPath id="clip0_4118_22650">
<rect width="400" height="256.329" fill="white" transform="translate(40.5986 49)"/>
</clipPath>
</defs>
</svg>
