<svg width="500" height="396" viewBox="0 0 500 396" fill="none" xmlns="http://www.w3.org/2000/svg">
<g filter="url(#filter0_dd_2776_13139)">
<rect x="86" y="6" width="328" height="328" rx="164" fill="#F1F8FF"/>
</g>
<path d="M84.6027 288.179C85.6725 288.65 88.2835 288.587 88.2835 288.587C88.2835 288.587 87.7275 286.877 87.6783 286.778C87.1012 285.575 85.2925 283.597 83.8145 283.794C83.5711 283.836 83.3391 283.927 83.1334 284.064C82.9277 284.2 82.7529 284.379 82.6203 284.587C82.4877 284.795 82.4002 285.029 82.3634 285.273C82.3267 285.517 82.3415 285.766 82.407 286.004C82.5934 286.504 82.8864 286.958 83.2656 287.333C83.6447 287.709 84.101 287.997 84.6027 288.179Z" fill="#1D2029"/>
<path d="M85.5042 295.716C86.6162 295.871 88.9457 295.195 89.1287 295.146C89.5134 296.479 89.9835 297.786 90.5362 299.059C90.86 299.798 91.2048 300.537 91.5637 301.269L91.1274 300.65C90.2547 299.643 87.9815 298.215 86.6162 298.792C86.3907 298.894 86.1893 299.043 86.0254 299.229C85.8614 299.415 85.7386 299.633 85.6648 299.87C85.5911 300.106 85.5681 300.356 85.5974 300.602C85.6268 300.848 85.7077 301.085 85.835 301.297C86.3417 302.219 87.5522 302.67 88.5305 302.817C89.724 302.815 90.9103 302.632 92.0494 302.276L92.4646 303.12C93.1684 304.464 93.8229 305.801 94.4492 307.132C94.6674 307.603 94.8715 308.075 95.0686 308.539C94.8785 308.258 94.7167 308.032 94.6885 307.997C93.8229 306.991 91.5497 305.562 90.1843 306.139C89.9588 306.242 89.7575 306.391 89.5935 306.577C89.4296 306.762 89.3067 306.981 89.233 307.217C89.1592 307.454 89.1363 307.703 89.1656 307.949C89.1949 308.195 89.2759 308.432 89.4031 308.645C89.7156 309.082 90.1202 309.445 90.5883 309.709C91.0565 309.973 91.5768 310.131 92.1127 310.172C93.275 310.181 94.4315 310.008 95.5401 309.658C95.7372 310.144 95.9272 310.629 96.0961 311.115C96.1946 311.446 96.3213 311.755 96.4057 312.093C96.4902 312.431 96.5958 312.762 96.6873 313.086C96.8351 313.719 96.9969 314.373 97.1306 315C97.2292 315.436 97.3136 315.851 97.3981 316.267C97.1799 315.795 96.7436 314.859 96.6943 314.81C95.9905 313.691 93.9566 311.931 92.5138 312.297C92.2759 312.365 92.0548 312.482 91.865 312.641C91.6752 312.8 91.5209 312.997 91.412 313.219C91.3032 313.442 91.2423 313.684 91.2333 313.932C91.2243 314.179 91.2673 314.425 91.3596 314.655C91.6044 315.131 91.9495 315.548 92.3711 315.877C92.7928 316.206 93.2809 316.44 93.8018 316.562C94.8434 316.879 97.1588 316.562 97.4473 316.562C97.5881 317.266 97.7148 317.921 97.8274 318.561C97.9118 319.033 97.9892 319.49 98.0526 319.926H98.9816C98.8971 319.441 98.7986 318.934 98.693 318.399C98.5593 317.695 98.3974 316.949 98.2215 316.182C98.9171 315.902 99.5961 315.582 100.255 315.225C101.154 315.995 102.153 316.639 103.225 317.139C102.958 317.794 102.69 318.427 102.43 319.018C102.296 319.335 102.163 319.631 102.029 319.926H103.014L103.246 319.363C103.521 318.702 103.795 317.956 104.077 317.252C104.358 317.308 106.646 317.773 107.715 317.533C108.68 317.315 109.827 316.766 110.284 315.809C110.394 315.588 110.456 315.345 110.467 315.098C110.477 314.851 110.434 314.604 110.343 314.375C110.251 314.145 110.112 313.937 109.935 313.765C109.757 313.592 109.545 313.459 109.313 313.374C107.906 312.903 105.752 314.507 104.964 315.57C104.914 315.633 104.485 316.379 104.26 316.851C104.373 316.548 104.485 316.26 104.598 315.943C104.823 315.331 105.027 314.711 105.252 314.05L105.548 313.064C105.653 312.734 105.724 312.361 105.815 312.03C106.005 311.228 106.16 310.404 106.294 309.567C107.385 310.001 108.536 310.267 109.707 310.355C110.244 310.353 110.774 310.234 111.26 310.007C111.746 309.78 112.177 309.449 112.522 309.039C112.664 308.836 112.761 308.606 112.808 308.363C112.855 308.121 112.85 307.871 112.794 307.63C112.739 307.389 112.633 307.163 112.484 306.966C112.336 306.768 112.147 306.604 111.931 306.484C110.608 305.78 108.236 307.061 107.293 307.997C107.237 308.054 106.632 308.807 106.315 309.222C106.392 308.722 106.47 308.215 106.533 307.709C106.716 306.231 106.857 304.732 107.005 303.24C107.047 302.782 107.096 302.325 107.145 301.867C107.335 301.938 109.602 302.782 110.714 302.705C111.25 302.703 111.78 302.584 112.266 302.357C112.752 302.13 113.183 301.799 113.529 301.389C113.67 301.186 113.767 300.956 113.814 300.713C113.861 300.471 113.856 300.221 113.801 299.98C113.745 299.739 113.639 299.513 113.491 299.315C113.342 299.118 113.154 298.954 112.938 298.834C111.614 298.13 109.243 299.411 108.3 300.347C108.229 300.418 107.371 301.501 107.159 301.755C107.265 300.748 107.385 299.749 107.54 298.771C107.736 297.442 108.02 296.128 108.391 294.837C108.483 294.872 110.84 295.759 111.987 295.681C112.973 295.611 114.218 295.245 114.803 294.365C114.945 294.163 115.043 293.934 115.09 293.691C115.138 293.449 115.133 293.199 115.078 292.959C115.022 292.718 114.916 292.492 114.766 292.295C114.617 292.099 114.428 291.936 114.211 291.817C112.888 291.114 110.517 292.387 109.573 293.323C109.503 293.401 108.574 294.562 108.419 294.78C108.445 294.706 108.466 294.631 108.483 294.555C108.889 293.272 109.409 292.029 110.038 290.839C110.376 290.171 110.742 289.558 111.101 288.967C112.166 289.537 113.313 289.94 114.5 290.163C115.033 290.227 115.573 290.173 116.082 290.005C116.592 289.838 117.058 289.56 117.449 289.192C117.612 289.007 117.735 288.79 117.808 288.554C117.882 288.318 117.905 288.07 117.876 287.824C117.846 287.579 117.766 287.343 117.639 287.131C117.512 286.919 117.342 286.737 117.139 286.595C115.9 285.772 113.402 286.757 112.367 287.588C112.311 287.63 111.783 288.151 111.41 288.538C111.579 288.277 111.748 288.003 111.917 287.75C112.536 286.814 113.163 285.99 113.726 285.272C114.049 284.864 114.352 284.498 114.634 284.167C115.825 284.174 117.011 284.003 118.153 283.661C118.645 283.462 119.088 283.159 119.453 282.772C119.817 282.386 120.094 281.926 120.264 281.423C120.324 281.187 120.334 280.942 120.295 280.703C120.255 280.463 120.167 280.234 120.034 280.031C119.902 279.827 119.729 279.653 119.526 279.52C119.324 279.386 119.096 279.296 118.856 279.255C117.371 279.093 115.612 281.12 115.077 282.337C115.028 282.443 114.486 284.167 114.514 284.167C114.232 284.484 113.937 284.829 113.62 285.209C113.043 285.913 112.396 286.729 111.748 287.658C111.043 288.649 110.397 289.681 109.813 290.748C109.149 291.951 108.593 293.211 108.152 294.513V294.555C108.152 294.119 108.152 292.901 108.152 292.81C107.983 291.487 106.878 289.044 105.414 288.77C105.171 288.731 104.923 288.744 104.685 288.807C104.447 288.869 104.225 288.981 104.033 289.135C103.84 289.289 103.683 289.481 103.569 289.699C103.455 289.918 103.389 290.157 103.373 290.403C103.393 290.936 103.53 291.459 103.773 291.934C104.016 292.41 104.36 292.826 104.781 293.155C105.618 293.901 107.934 294.625 108.117 294.682C107.692 296.009 107.359 297.363 107.117 298.736C106.977 299.531 106.857 300.333 106.751 301.142C106.751 300.769 106.751 300.439 106.751 300.382C106.575 299.066 105.477 296.617 104.014 296.35C103.766 296.308 103.512 296.321 103.27 296.385C103.027 296.45 102.802 296.566 102.608 296.726C102.414 296.885 102.256 297.084 102.145 297.309C102.034 297.534 101.973 297.781 101.966 298.032C101.987 298.566 102.123 299.089 102.366 299.566C102.609 300.042 102.953 300.46 103.373 300.791C104.373 301.438 105.464 301.932 106.611 302.254C106.568 302.564 106.526 302.874 106.491 303.19C106.315 304.682 106.139 306.174 105.928 307.631C105.85 308.145 105.759 308.645 105.667 309.151C105.667 308.814 105.667 308.532 105.667 308.49C105.492 307.174 104.387 304.725 102.93 304.457C102.685 304.418 102.436 304.431 102.197 304.496C101.958 304.56 101.735 304.674 101.543 304.83C101.351 304.986 101.194 305.181 101.083 305.401C100.971 305.622 100.908 305.864 100.896 306.111C100.917 306.645 101.054 307.169 101.297 307.645C101.54 308.121 101.883 308.539 102.303 308.87C103.269 309.516 104.327 310.01 105.442 310.334C105.337 310.848 105.231 311.361 105.097 311.854C105.006 312.185 104.936 312.516 104.823 312.846L104.506 313.825C104.281 314.437 104.056 315.07 103.802 315.668C103.641 316.084 103.486 316.471 103.324 316.865C103.401 316.358 103.542 315.352 103.542 315.267C103.525 314.1 103.21 312.957 102.627 311.945C102.638 311.814 102.638 311.682 102.627 311.551C102.596 311.306 102.514 311.07 102.386 310.859C102.258 310.647 102.087 310.465 101.883 310.325C101.68 310.184 101.45 310.087 101.207 310.042C100.964 309.996 100.714 310.002 100.474 310.059C99.066 310.439 98.123 312.966 98.0596 314.282C98.0596 314.359 98.1019 315.211 98.1441 315.753C98.0737 315.436 98.0104 315.134 97.9259 314.81C97.7781 314.176 97.6092 313.543 97.4262 312.867L97.1306 311.882C97.0391 311.551 96.8984 311.214 96.7858 310.876C96.4972 310.102 96.1735 309.327 95.8286 308.553C96.9937 308.316 98.1145 307.898 99.1505 307.315C99.9387 306.709 100.776 305.724 100.769 304.675C100.776 304.428 100.73 304.181 100.636 303.952C100.541 303.723 100.399 303.516 100.219 303.346C100.039 303.175 99.8252 303.044 99.5914 302.962C99.3576 302.879 99.1091 302.847 98.8619 302.867C97.384 303.029 96.1031 305.386 95.8357 306.688C95.8357 306.773 95.7301 307.723 95.6879 308.251C95.4768 307.786 95.2727 307.329 95.0404 306.843C94.3789 305.513 93.6329 304.183 92.9291 302.86L92.2957 301.635C92.4927 301.593 94.8434 301.044 95.7301 300.361C96.6169 299.679 97.3558 298.771 97.3488 297.722C97.3555 297.475 97.3102 297.23 97.2157 297.001C97.1213 296.773 96.9798 296.567 96.8006 296.397C96.6213 296.227 96.4083 296.097 96.1754 296.015C95.9424 295.933 95.6948 295.901 95.4486 295.92C93.9636 296.075 92.6828 298.433 92.4153 299.735C92.4153 299.833 92.2675 301.213 92.2534 301.558C91.789 300.664 91.3315 299.763 90.9163 298.862C90.3527 297.644 89.8684 296.391 89.4665 295.111C89.558 295.111 92.0212 294.527 92.9291 293.837C93.7103 293.232 94.5478 292.24 94.5407 291.191C94.5475 290.944 94.5021 290.699 94.4077 290.47C94.3132 290.242 94.1718 290.036 93.9925 289.866C93.8133 289.696 93.6002 289.566 93.3673 289.484C93.1344 289.402 92.8867 289.369 92.6405 289.389C91.1626 289.551 89.8747 291.902 89.6072 293.204C89.6072 293.309 89.4524 294.787 89.4454 295.055C89.4454 294.984 89.3961 294.907 89.368 294.837C89.0016 293.54 88.7496 292.215 88.6149 290.874C88.5375 290.135 88.4953 289.425 88.4742 288.728C89.685 288.619 90.8719 288.325 91.9931 287.855C92.8376 287.341 93.7807 286.448 93.8862 285.399C93.9199 285.154 93.9018 284.906 93.833 284.669C93.7642 284.432 93.6464 284.212 93.4871 284.023C93.3278 283.835 93.1306 283.682 92.9084 283.574C92.6862 283.467 92.4438 283.408 92.1971 283.4C90.7051 283.4 89.1709 285.603 88.7627 286.863C88.7627 286.933 88.5868 287.658 88.4882 288.186C88.4882 287.876 88.4882 287.552 88.4882 287.25C88.4882 286.124 88.5586 285.096 88.629 284.181C88.6782 283.661 88.7275 283.196 88.7768 282.774C89.7658 282.131 90.653 281.343 91.4089 280.437C91.7183 280.001 91.9285 279.502 92.0245 278.975C92.1206 278.449 92.1002 277.908 91.9649 277.39C91.8818 277.157 91.7505 276.944 91.5797 276.764C91.4089 276.585 91.2023 276.444 90.9734 276.35C90.7444 276.255 90.4982 276.21 90.2508 276.217C90.0033 276.224 89.7601 276.283 89.5369 276.391C88.2208 277.094 87.8689 279.733 88.0871 281.05C88.0871 281.162 88.6079 282.9 88.629 282.886C88.5656 283.309 88.5093 283.759 88.4601 284.252C88.3686 285.16 88.2771 286.194 88.2489 287.327C88.2086 288.543 88.2368 289.76 88.3334 290.973C88.4505 292.333 88.686 293.68 89.0372 294.998C89.0395 295.015 89.0395 295.031 89.0372 295.048C88.8049 294.682 88.1152 293.675 88.0519 293.605C87.1862 292.599 84.913 291.163 83.5477 291.747C83.3222 291.85 83.1209 291.999 82.9569 292.184C82.793 292.37 82.6701 292.588 82.5964 292.825C82.5226 293.061 82.4996 293.311 82.529 293.557C82.5583 293.803 82.6392 294.04 82.7665 294.252C83.0903 294.679 83.5026 295.031 83.9752 295.284C84.4477 295.537 84.9693 295.684 85.5042 295.716Z" fill="#1D2029"/>
<path d="M111.029 288.721C111.029 288.721 111.501 286.982 111.515 286.87C111.698 285.554 111.283 282.9 109.939 282.253C109.713 282.152 109.469 282.1 109.222 282.099C108.975 282.099 108.731 282.15 108.505 282.251C108.279 282.351 108.077 282.498 107.912 282.681C107.747 282.865 107.622 283.081 107.546 283.316C107.187 284.301 107.644 285.519 108.179 286.349C108.812 287.327 111.022 288.721 111.029 288.721Z" fill="#1D2029"/>
<path d="M428.956 303.478C429.529 303.618 430.121 303.678 430.714 303.658C430.714 303.658 430.449 302.909 430.426 302.863C430.152 302.34 429.285 301.469 428.6 301.557C428.484 301.575 428.373 301.615 428.275 301.674C428.177 301.734 428.093 301.812 428.03 301.903C427.966 301.994 427.925 302.097 427.908 302.204C427.89 302.311 427.898 302.42 427.929 302.524C428.015 302.742 428.151 302.94 428.329 303.105C428.506 303.269 428.72 303.397 428.956 303.478Z" fill="#1D2029"/>
<path d="M429.406 307.39C430.048 307.386 430.685 307.288 431.297 307.101C431.496 307.786 431.742 308.457 432.034 309.109C432.198 309.492 432.382 309.87 432.566 310.248L432.337 309.929C431.884 309.414 430.705 308.677 429.989 308.976C429.872 309.03 429.767 309.106 429.682 309.202C429.597 309.297 429.534 309.409 429.495 309.53C429.457 309.652 429.444 309.779 429.459 309.906C429.474 310.032 429.515 310.154 429.581 310.263C429.744 310.486 429.955 310.671 430.198 310.806C430.441 310.941 430.711 311.022 430.989 311.044C431.612 311.044 432.231 310.95 432.825 310.764C432.894 310.911 432.969 311.054 433.039 311.196C433.392 311.889 433.745 312.576 434.074 313.264C434.188 313.504 434.293 313.755 434.397 313.985C434.298 313.843 434.213 313.725 434.198 313.71C433.745 313.195 432.566 312.458 431.85 312.758C431.733 312.811 431.628 312.888 431.543 312.983C431.458 313.079 431.395 313.191 431.357 313.312C431.319 313.434 431.307 313.562 431.322 313.688C431.338 313.814 431.38 313.935 431.447 314.044C431.609 314.267 431.819 314.453 432.061 314.587C432.303 314.722 432.572 314.803 432.85 314.825C433.455 314.827 434.058 314.737 434.636 314.56C434.736 314.81 434.835 315.051 434.925 315.306C435.014 315.562 435.044 315.64 435.089 315.798C435.134 315.955 435.183 316.136 435.233 316.289C435.308 316.613 435.392 316.952 435.462 317.271C435.512 317.492 435.557 317.708 435.601 317.924C435.492 317.678 435.263 317.212 435.238 317.173C434.87 316.598 433.815 315.699 433.064 315.881C432.94 315.916 432.824 315.976 432.725 316.058C432.626 316.139 432.546 316.241 432.489 316.355C432.432 316.47 432.4 316.594 432.396 316.722C432.391 316.849 432.413 316.976 432.462 317.094C432.589 317.338 432.768 317.552 432.987 317.722C433.206 317.891 433.46 318.012 433.73 318.076C434.36 318.17 435.001 318.17 435.631 318.076C435.706 318.435 435.77 318.778 435.83 319.107C435.875 319.348 435.91 319.598 435.95 319.81H436.447C436.402 319.559 436.353 319.319 436.298 319.024C436.223 318.665 436.139 318.277 436.049 317.885C436.412 317.742 436.766 317.578 437.109 317.394C437.577 317.789 438.098 318.119 438.656 318.376C438.517 318.71 438.378 319.039 438.243 319.358C438.174 319.52 438.104 319.672 438.034 319.849H438.532C438.577 319.751 438.617 319.657 438.656 319.559C438.796 319.215 438.945 318.852 439.089 318.474C439.71 318.617 440.35 318.665 440.985 318.616C441.26 318.575 441.523 318.474 441.754 318.321C441.985 318.168 442.18 317.967 442.324 317.732C442.381 317.619 442.413 317.495 442.418 317.368C442.424 317.242 442.403 317.115 442.356 316.998C442.309 316.88 442.238 316.773 442.146 316.684C442.055 316.594 441.946 316.525 441.826 316.48C441.095 316.24 439.97 317.06 439.562 317.61C439.537 317.644 439.313 318.022 439.174 318.268C439.234 318.111 439.293 317.963 439.353 317.801C439.467 317.487 439.577 317.168 439.691 316.819L439.846 316.328C439.9 316.156 439.935 315.974 439.985 315.798C440.085 315.38 440.164 314.958 440.239 314.531C440.813 314.755 441.419 314.892 442.035 314.938C442.314 314.936 442.589 314.874 442.842 314.757C443.094 314.64 443.318 314.471 443.498 314.26C443.571 314.156 443.621 314.038 443.646 313.914C443.67 313.789 443.667 313.661 443.638 313.537C443.609 313.414 443.554 313.298 443.477 313.196C443.4 313.095 443.302 313.011 443.189 312.949C442.498 312.596 441.264 313.244 440.771 313.725C440.741 313.755 440.428 314.143 440.274 314.354C440.313 314.098 440.358 313.863 440.388 313.578C440.483 312.817 440.557 312.046 440.632 311.28L440.706 310.572C441.301 310.809 441.928 310.955 442.567 311.005C442.845 311.004 443.12 310.943 443.372 310.827C443.623 310.711 443.847 310.542 444.025 310.332C444.099 310.227 444.15 310.109 444.175 309.984C444.2 309.859 444.197 309.73 444.168 309.606C444.139 309.482 444.084 309.365 444.006 309.263C443.928 309.162 443.83 309.077 443.717 309.016C443.03 308.667 441.796 309.315 441.304 309.797C441.269 309.831 440.806 310.386 440.711 310.533C440.766 310.018 440.826 309.502 440.906 308.996C441.011 308.315 441.161 307.64 441.353 306.978C441.952 307.211 442.583 307.356 443.224 307.41C443.503 307.409 443.778 307.348 444.03 307.231C444.281 307.114 444.504 306.944 444.682 306.732C444.756 306.628 444.807 306.51 444.832 306.385C444.856 306.261 444.854 306.132 444.825 306.009C444.796 305.885 444.74 305.769 444.663 305.667C444.585 305.566 444.486 305.482 444.374 305.421C443.687 305.072 442.453 305.716 441.96 306.202C441.926 306.236 441.463 306.835 441.358 306.948C441.358 306.909 441.358 306.87 441.393 306.83C441.602 306.17 441.873 305.53 442.204 304.92C442.378 304.581 442.567 304.262 442.757 303.963C443.312 304.254 443.909 304.461 444.528 304.576C444.805 304.605 445.085 304.574 445.349 304.485C445.613 304.396 445.854 304.251 446.055 304.061C446.14 303.966 446.204 303.854 446.243 303.733C446.281 303.612 446.293 303.484 446.278 303.358C446.263 303.232 446.221 303.11 446.155 303.001C446.09 302.892 446.001 302.798 445.896 302.725C445.249 302.303 443.951 302.809 443.408 303.216C443.378 303.241 443.105 303.506 442.911 303.707L443.17 303.304C443.498 302.813 443.821 302.401 444.115 302.028C444.284 301.821 444.438 301.635 444.612 301.463C445.239 301.469 445.863 301.381 446.464 301.203C446.722 301.102 446.956 300.947 447.148 300.749C447.341 300.55 447.487 300.313 447.578 300.054C447.609 299.93 447.612 299.802 447.59 299.677C447.567 299.552 447.518 299.433 447.445 299.328C447.373 299.223 447.28 299.134 447.17 299.067C447.061 299 446.939 298.956 446.812 298.939C446.041 298.855 445.125 299.896 444.821 300.52C444.821 300.574 444.518 301.463 444.528 301.463C444.379 301.625 444.224 301.802 444.06 301.998C443.762 302.367 443.423 302.779 443.065 303.255C442.704 303.768 442.372 304.299 442.07 304.846C441.725 305.458 441.437 306.099 441.209 306.762C441.209 306.541 441.209 305.912 441.209 305.863C441.119 305.185 440.542 303.928 439.781 303.791C439.654 303.771 439.524 303.778 439.401 303.812C439.277 303.845 439.161 303.903 439.062 303.983C438.962 304.064 438.881 304.163 438.823 304.277C438.765 304.39 438.732 304.514 438.726 304.64C438.736 304.916 438.808 305.185 438.935 305.43C439.062 305.676 439.242 305.89 439.463 306.059C439.998 306.406 440.583 306.671 441.199 306.845C440.987 307.526 440.821 308.22 440.702 308.922C440.627 309.33 440.567 309.743 440.512 310.16C440.512 309.968 440.512 309.792 440.512 309.772C440.423 309.094 439.846 307.837 439.084 307.695C438.957 307.675 438.827 307.683 438.702 307.716C438.578 307.75 438.462 307.808 438.362 307.889C438.262 307.97 438.18 308.07 438.122 308.184C438.064 308.297 438.031 308.422 438.025 308.549C438.036 308.823 438.109 309.092 438.236 309.336C438.363 309.58 438.542 309.794 438.761 309.964C439.28 310.302 439.849 310.56 440.448 310.73L440.388 311.221C440.293 311.987 440.204 312.753 440.094 313.504C440.055 313.769 440.005 314.025 439.96 314.285C439.96 314.113 439.96 313.971 439.96 313.946C439.871 313.268 439.293 312.011 438.532 311.874C438.405 311.854 438.275 311.86 438.151 311.893C438.027 311.926 437.911 311.984 437.811 312.065C437.712 312.145 437.63 312.245 437.573 312.359C437.515 312.472 437.483 312.597 437.477 312.723C437.488 312.999 437.559 313.268 437.686 313.513C437.814 313.758 437.994 313.973 438.214 314.143C438.716 314.475 439.269 314.729 439.851 314.894C439.791 315.154 439.736 315.419 439.672 315.675C439.622 315.847 439.582 316.014 439.522 316.166L439.358 316.657C439.244 316.971 439.124 317.3 439.005 317.605C438.92 317.816 438.836 318.017 438.756 318.223C438.796 317.958 438.87 317.443 438.87 317.403C438.855 316.8 438.684 316.21 438.373 315.69C438.378 315.624 438.378 315.558 438.373 315.493C438.357 315.367 438.315 315.245 438.249 315.136C438.182 315.027 438.093 314.933 437.988 314.86C437.882 314.788 437.762 314.738 437.636 314.714C437.509 314.69 437.379 314.693 437.253 314.722C436.502 314.919 436.029 316.195 435.994 316.898C435.994 316.942 435.994 317.389 436.039 317.654C435.999 317.497 435.965 317.34 435.925 317.163C435.845 316.839 435.761 316.515 435.666 316.181C435.616 316.014 435.562 315.842 435.512 315.69C435.462 315.537 435.387 315.351 435.328 315.174C435.183 314.776 435.009 314.378 434.83 313.981C435.437 313.856 436.021 313.641 436.562 313.342C436.793 313.189 436.988 312.987 437.133 312.753C437.278 312.518 437.37 312.255 437.403 311.982C437.406 311.854 437.382 311.728 437.332 311.61C437.283 311.492 437.208 311.386 437.115 311.299C437.021 311.211 436.909 311.144 436.787 311.102C436.666 311.06 436.536 311.043 436.407 311.054C435.641 311.137 434.969 312.35 434.83 313.018C434.83 313.062 434.775 313.553 434.755 313.823C434.646 313.583 434.536 313.332 434.417 313.111C434.074 312.424 433.706 311.741 433.337 311.059C433.223 310.852 433.113 310.641 433.004 310.43C433.632 310.304 434.236 310.084 434.795 309.777C435.028 309.626 435.223 309.426 435.369 309.192C435.514 308.957 435.605 308.695 435.636 308.422C435.64 308.294 435.617 308.167 435.567 308.049C435.518 307.931 435.444 307.824 435.35 307.737C435.256 307.649 435.144 307.582 435.022 307.54C434.9 307.498 434.77 307.482 434.641 307.493C433.87 307.577 433.203 308.785 433.064 309.458C433.064 309.507 432.989 310.214 432.979 310.396C432.735 309.934 432.481 309.472 432.282 309.006C431.991 308.378 431.738 307.734 431.526 307.076C432.158 306.949 432.767 306.729 433.332 306.423C433.563 306.269 433.758 306.068 433.903 305.833C434.049 305.599 434.141 305.336 434.173 305.063C434.176 304.935 434.151 304.809 434.101 304.692C434.051 304.574 433.977 304.469 433.884 304.381C433.79 304.294 433.679 304.227 433.557 304.184C433.436 304.142 433.307 304.125 433.178 304.134C432.412 304.218 431.74 305.431 431.601 306.099C431.601 306.153 431.521 306.914 431.521 307.051L431.476 306.938C431.286 306.272 431.156 305.59 431.088 304.901C431.043 304.522 431.024 304.154 431.014 303.8C431.64 303.742 432.254 303.589 432.835 303.349C433.084 303.223 433.302 303.044 433.474 302.826C433.646 302.608 433.767 302.356 433.83 302.087C433.847 301.961 433.838 301.833 433.802 301.711C433.766 301.589 433.705 301.476 433.622 301.38C433.538 301.283 433.436 301.204 433.32 301.149C433.204 301.094 433.078 301.064 432.949 301.06C432.173 301.06 431.372 302.19 431.158 302.838C431.158 302.877 431.068 303.246 431.019 303.521C431.019 303.359 431.019 303.192 431.019 303.029C431.019 302.45 431.058 301.92 431.093 301.453C431.093 301.183 431.143 300.962 431.173 300.721C431.698 300.387 432.168 299.974 432.566 299.499C432.727 299.274 432.836 299.018 432.886 298.747C432.936 298.476 432.925 298.198 432.855 297.932C432.812 297.812 432.744 297.703 432.656 297.611C432.568 297.518 432.461 297.446 432.342 297.397C432.223 297.348 432.095 297.325 431.967 297.328C431.838 297.332 431.712 297.362 431.596 297.416C430.904 297.77 430.725 299.135 430.839 299.813C430.839 299.872 431.108 300.761 431.118 300.756C431.088 300.972 431.058 301.203 431.029 301.458C430.984 301.949 430.934 302.44 430.919 303.034C430.898 303.66 430.913 304.286 430.964 304.91C431.006 305.621 431.112 306.326 431.282 307.017V307.042C431.158 306.85 430.785 306.334 430.785 306.3C430.332 305.78 429.148 305.048 428.436 305.342C428.319 305.395 428.214 305.471 428.128 305.567C428.043 305.662 427.979 305.774 427.94 305.896C427.902 306.017 427.89 306.145 427.905 306.272C427.92 306.398 427.962 306.52 428.028 306.629C428.19 306.846 428.396 307.026 428.634 307.157C428.872 307.288 429.135 307.368 429.406 307.39Z" fill="#1D2029"/>
<path d="M442.407 303.662C442.407 303.662 442.647 302.738 442.657 302.677C442.75 301.976 442.535 300.57 441.849 300.224C441.734 300.171 441.608 300.143 441.482 300.143C441.355 300.143 441.23 300.17 441.114 300.223C440.998 300.276 440.895 300.354 440.809 300.451C440.724 300.549 440.66 300.663 440.62 300.788C440.554 301.067 440.549 301.358 440.604 301.64C440.659 301.922 440.773 302.187 440.939 302.418C441.366 302.906 441.861 303.325 442.407 303.662Z" fill="#1D2029"/>
<path d="M149.097 70.1057C149.097 70.1057 139.385 48.9923 127.392 46.6909C115.4 44.3896 107.975 58.6552 102.267 64.9892C96.5596 71.3232 94.3075 56.4031 83.4201 59.8235C72.5326 63.2438 71.4558 72.393 65.1218 71.7877C58.7878 71.1825 54.2906 61.5618 48.5619 65.5382C42.8331 69.5145 38.3008 76.3904 38.3008 76.3904H177.649C177.649 76.3904 174.222 66.6783 165.685 64.4262C157.148 62.1741 153.664 71.2458 149.097 70.1057Z" stroke="#1D2029" stroke-width="0.703779" stroke-miterlimit="10"/>
<path d="M403.213 75.2478C403.213 75.2478 397.464 62.5203 390.437 61.1475C383.411 59.7747 379.01 68.3382 375.65 72.1558C372.29 75.9734 370.942 66.9981 364.554 69.0572C358.166 71.1164 357.496 76.6271 353.797 76.2479C350.098 75.8688 347.409 70.0574 344.049 72.463C340.689 74.8686 338 79 338 79H420C420 79 417.981 73.1559 412.973 71.8093C407.965 70.4627 405.902 75.9407 403.213 75.2478Z" stroke="#1D2029" stroke-width="0.703779" stroke-miterlimit="10"/>
<path d="M232.681 122.062C232.681 122.062 228.15 112.18 222.556 111.115C216.963 110.049 213.5 116.697 210.837 119.661C208.174 122.625 207.106 115.652 202.044 117.255C196.982 118.859 196.45 123.132 193.519 122.863C190.588 122.594 188.457 118.057 185.794 119.925C183.131 121.793 181 125 181 125H246C246 125 244.4 120.432 240.406 119.392C236.412 118.352 234.812 122.594 232.681 122.062Z" stroke="#1D2029" stroke-width="0.703779" stroke-miterlimit="10"/>
<path d="M423.183 303.669H333.289V306.78H423.183V303.669Z" fill="white" stroke="#1D2029" stroke-width="0.703779" stroke-linecap="round" stroke-linejoin="round"/>
<path d="M335.296 307.188L333.375 305.266L421.368 217.751L423.297 219.673L335.296 307.188Z" fill="white" stroke="#1D2029" stroke-width="0.703779" stroke-linecap="round" stroke-linejoin="round"/>
<path d="M421.368 307.188L423.297 305.266L335.296 217.751L333.375 219.673L421.368 307.188Z" fill="white" stroke="#1D2029" stroke-width="0.703779" stroke-linecap="round" stroke-linejoin="round"/>
<path d="M336.013 203.514H333.289V319.912H336.013V203.514Z" fill="white" stroke="#1D2029" stroke-width="0.703779" stroke-linecap="round" stroke-linejoin="round"/>
<path d="M423.185 203.514H420.461V319.912H423.185V203.514Z" fill="white" stroke="#1D2029" stroke-width="0.703779" stroke-linecap="round" stroke-linejoin="round"/>
<path d="M423.183 200.403H333.289V203.514H423.183V200.403Z" fill="white" stroke="#1D2029" stroke-width="0.703779" stroke-linecap="round" stroke-linejoin="round"/>
<path d="M52.25 175.658V140.188H58.8374V175.658H52.25Z" fill="#1D2029"/>
<path d="M68.4082 175.658V140.188H73.8343L89.3175 166.08H86.5024L101.753 140.188H107.172L107.222 175.658H100.993L100.944 149.963H102.26L89.2893 171.605H86.3475L73.1939 149.963H74.7141V175.658H68.4082Z" fill="#1D2029"/>
<path d="M116.828 175.659V140.188H131.396C134.167 140.116 136.921 140.634 139.476 141.708C141.598 142.617 143.405 144.133 144.67 146.065C145.863 148.11 146.492 150.435 146.492 152.803C146.492 155.171 145.863 157.497 144.67 159.542C143.405 161.474 141.598 162.989 139.476 163.898C136.921 164.972 134.167 165.49 131.396 165.419H120.453L123.387 162.329V175.659H116.828ZM123.415 163.04L120.481 159.845H131.122C134.021 159.845 136.208 159.23 137.681 158.001C138.378 157.324 138.933 156.515 139.311 155.62C139.69 154.726 139.885 153.764 139.885 152.793C139.885 151.821 139.69 150.86 139.311 149.965C138.933 149.071 138.378 148.261 137.681 147.585C136.208 146.37 134.021 145.762 131.122 145.762H120.453L123.387 142.518L123.415 163.04Z" fill="#1D2029"/>
<path d="M146.296 175.658L162.258 140.188H168.739L184.75 175.658H177.86L164.13 143.686H166.797L153.116 175.658H146.296ZM153.643 167.445L155.417 162.28H174.539L176.312 167.445H153.643Z" fill="#1D2029"/>
<path d="M189.262 175.658V140.188H195.849V175.658H189.262ZM195.138 167.298L194.786 159.493L213.38 140.188H220.784L205.301 156.607L201.648 160.605L195.138 167.298ZM213.993 175.658L200.41 159.472L204.766 154.658L221.692 175.658H213.993Z" fill="#1D2029"/>
<path d="M231.115 175.658V145.762H219.362V140.188H249.463V145.762H237.703V175.658H231.115Z" fill="#1D2029"/>
<path d="M339.398 175.659V140.188H354.002C356.772 140.116 359.526 140.634 362.081 141.708C364.206 142.613 366.014 144.13 367.275 146.065C368.473 148.108 369.105 150.434 369.105 152.803C369.105 155.172 368.473 157.498 367.275 159.542C366.014 161.477 364.206 162.993 362.081 163.898C359.526 164.972 356.772 165.49 354.002 165.419H343.051L345.986 162.329V175.659H339.398ZM345.986 163.04L343.051 159.845H353.692C356.592 159.845 358.778 159.23 360.251 158.001C360.949 157.324 361.503 156.515 361.881 155.62C362.26 154.726 362.455 153.764 362.455 152.793C362.455 151.821 362.26 150.86 361.881 149.965C361.503 149.071 360.949 148.261 360.251 147.585C358.783 146.37 356.596 145.762 353.692 145.762H343.051L345.986 142.518V163.04Z" fill="#1492EF"/>
<path d="M375.686 175.659V140.188H390.275C393.041 140.119 395.789 140.637 398.34 141.708C400.463 142.617 402.27 144.133 403.534 146.065C404.728 148.106 405.357 150.428 405.357 152.793C405.357 155.157 404.728 157.48 403.534 159.521C402.265 161.437 400.458 162.935 398.34 163.828C395.778 164.882 393.024 165.39 390.254 165.32H379.338L382.28 162.329V175.659H375.686ZM382.273 163.04L379.338 159.901H389.979C392.888 159.901 395.075 159.275 396.539 158.022C397.278 157.377 397.861 156.572 398.244 155.669C398.627 154.765 398.799 153.787 398.748 152.807C398.806 151.825 398.637 150.843 398.254 149.938C397.87 149.032 397.283 148.227 396.539 147.585C395.075 146.37 392.888 145.762 389.979 145.762H379.338L382.28 142.518L382.273 163.04ZM398.889 175.659L389.895 162.786H396.933L405.948 175.659H398.889Z" fill="#1492EF"/>
<path d="M429.341 176.165C426.725 176.182 424.13 175.704 421.691 174.758C419.433 173.895 417.367 172.596 415.61 170.936C413.893 169.305 412.53 167.339 411.606 165.158C409.72 160.495 409.72 155.281 411.606 150.618C412.53 148.438 413.893 146.471 415.61 144.84C417.369 143.18 419.434 141.879 421.691 141.011C426.605 139.191 432.008 139.191 436.921 141.011C439.167 141.885 441.222 143.185 442.973 144.84C444.693 146.469 446.056 148.436 446.978 150.618C447.938 152.92 448.417 155.394 448.385 157.888C448.413 160.391 447.934 162.873 446.978 165.186C446.063 167.37 444.699 169.336 442.973 170.957C441.219 172.601 439.164 173.892 436.921 174.758C434.506 175.703 431.934 176.181 429.341 176.165ZM429.292 170.387C430.992 170.405 432.679 170.094 434.261 169.472C435.745 168.892 437.091 168.004 438.209 166.868C439.328 165.732 440.215 164.389 440.82 162.913C442.068 159.704 442.068 156.143 440.82 152.934C440.215 151.458 439.328 150.114 438.209 148.978C437.081 147.839 435.726 146.949 434.232 146.367C432.649 145.751 430.963 145.443 429.264 145.459C427.579 145.443 425.906 145.751 424.337 146.367C422.857 146.96 421.514 147.848 420.389 148.978C419.257 150.109 418.36 151.454 417.75 152.934C416.502 156.133 416.502 159.685 417.75 162.885C418.354 164.37 419.24 165.723 420.361 166.868C421.482 168.005 422.83 168.892 424.316 169.472C425.904 170.098 427.599 170.409 429.306 170.387H429.292Z" fill="#1492EF"/>
<path d="M266.734 141.983H286.749V147.507H260.146V112.037H286.039V117.562H266.734V141.983ZM266.227 126.781H283.857V132.2H266.22L266.227 126.781Z" fill="#1D2029"/>
<path d="M294.09 147.507V112.037H308.679C311.452 111.965 314.208 112.483 316.766 113.557C318.888 114.466 320.695 115.982 321.96 117.913C323.153 119.955 323.782 122.277 323.782 124.642C323.782 127.006 323.153 129.328 321.96 131.37C320.69 133.286 318.883 134.784 316.766 135.677C314.203 136.731 311.449 137.239 308.679 137.169H297.735L300.677 134.178V147.507H294.09ZM300.677 134.889L297.735 131.75H308.377C311.281 131.75 313.467 131.123 314.936 129.871C315.675 129.226 316.258 128.421 316.641 127.518C317.024 126.614 317.197 125.635 317.146 124.656C317.203 123.674 317.034 122.692 316.651 121.786C316.268 120.881 315.681 120.076 314.936 119.434C313.472 118.218 311.286 117.611 308.377 117.611H297.735L300.677 114.366V134.889ZM317.293 147.507L308.327 134.635H315.365L324.381 147.507H317.293Z" fill="#1D2029"/>
<path d="M309.418 114.007L292.084 70.9221L274.75 114.007" stroke="#1D2029" stroke-width="0.703779" stroke-linejoin="round"/>
<path d="M289.705 59.1127V62.9694L288.368 65.3693C287.874 66.2431 287.714 67.2666 287.919 68.2493C288.123 69.232 288.678 70.1069 289.48 70.711C290.264 71.3071 291.235 71.6035 292.219 71.5467C293.202 71.49 294.132 71.0837 294.843 70.4013L294.948 70.3098C295.536 69.7473 295.945 69.0241 296.124 68.2305C296.303 67.4369 296.244 66.6082 295.955 65.8478L295.511 64.6725" stroke="#1D2029" stroke-width="1.40756" stroke-miterlimit="10" stroke-linecap="round"/>
<path d="M304.648 49.4146H277.777V59.6334H304.648V49.4146Z" fill="white" stroke="#1D2029" stroke-width="0.703779" stroke-miterlimit="10"/>
<path d="M282.252 49.1471V20.0388" stroke="#1D2029" stroke-width="0.703779" stroke-miterlimit="10"/>
<path d="M300.938 49.1471V20.0388" stroke="#1D2029" stroke-width="0.703779" stroke-miterlimit="10"/>
<path d="M304.641 51.8848H277.742V56.6212H304.641V51.8848Z" stroke="#1D2029" stroke-width="0.703779" stroke-miterlimit="10"/>
<path d="M291.091 51.8849H287.298L282.568 56.6213H286.355L291.091 51.8849Z" fill="#1960BB" stroke="#1960BB" stroke-width="0.703779" stroke-miterlimit="10"/>
<path d="M279.692 51.8848L277.742 53.8342V56.6212H278.742L283.478 51.8848H279.692Z" fill="#1960BB" stroke="#1960BB" stroke-width="0.703779" stroke-miterlimit="10"/>
<path d="M298.699 51.8848H294.912L290.176 56.6212H293.962L298.699 51.8848Z" fill="#1960BB" stroke="#1960BB" stroke-width="0.703779" stroke-miterlimit="10"/>
<path d="M304.639 53.5599V51.8849H302.527L297.791 56.6213H301.577L304.639 53.5599Z" fill="#1960BB" stroke="#1960BB" stroke-width="0.703779" stroke-miterlimit="10"/>
<path d="M381.795 195.836H386.292L384.814 147.564L383.794 139.442L365.503 138.956L364.004 146.867L362.512 195.836H367.002L373.934 152.483H374.863L381.795 195.836Z" fill="#1D2029" stroke="#1D2029" stroke-width="0.703779" stroke-linecap="round" stroke-linejoin="round"/>
<path d="M362.51 195.836L362.391 200.46H366.656L367 195.836H362.51Z" fill="white" stroke="#1D2029" stroke-width="0.703779" stroke-linecap="round" stroke-linejoin="round"/>
<path d="M386.326 195.836L386.439 200.46H382.181L381.836 195.836H386.326Z" fill="white" stroke="#1D2029" stroke-width="0.703779" stroke-linecap="round" stroke-linejoin="round"/>
<path d="M385.785 111.045L391.478 132.58L388.22 145.776H385.721V132.404L384.539 129.026L385.785 111.045Z" fill="white" stroke="#1D2029" stroke-width="0.703779" stroke-linecap="round" stroke-linejoin="round"/>
<path d="M385.722 145.776L384.892 148.486L384.723 150.407L385.856 150.583L386.208 149.274L386.032 152.244H387.341L389.002 148.486L388.22 145.776H385.722Z" fill="white" stroke="#1D2029" stroke-width="0.703779" stroke-linecap="round" stroke-linejoin="round"/>
<path d="M369.752 108.968L361.258 112.895L365.262 139.773L383.793 139.442L385.785 111.045L377.212 108.708L369.752 108.968Z" fill="#1960BB" stroke="#1D2029" stroke-width="0.703779" stroke-linecap="round" stroke-linejoin="round"/>
<path d="M369.754 108.968L374.314 119.328L377.214 108.708L369.754 108.968Z" fill="#1D2029" stroke="#1D2029" stroke-width="0.35189" stroke-linecap="round" stroke-linejoin="round"/>
<path d="M369.309 105.724L369.752 108.968L371.948 111.579C372.186 111.861 372.489 112.081 372.83 112.222C373.171 112.363 373.541 112.42 373.908 112.389C374.276 112.358 374.631 112.24 374.944 112.044C375.257 111.848 375.518 111.58 375.706 111.263L377.226 108.715L377.135 105.027L369.309 105.724Z" fill="white" stroke="#1D2029" stroke-width="0.703779" stroke-linecap="round" stroke-linejoin="round"/>
<path d="M368.078 101.016C368.078 101.016 368.845 105.942 369.429 107.089C370.014 108.236 372.392 110.066 373.547 110.165C374.701 110.263 377.445 107.35 377.544 106.498C377.642 105.647 377.706 100.164 377.706 100.164L368.078 101.016Z" fill="white" stroke="#1D2029" stroke-width="0.703779" stroke-linecap="round" stroke-linejoin="round"/>
<path d="M378.634 101.044C378.796 100.523 378.261 99.9741 378.261 99.411C378.288 98.6694 378.164 97.93 377.899 97.2371C377.633 96.5441 377.231 95.9117 376.716 95.3777C376.2 94.8437 375.583 94.4189 374.9 94.1288C374.217 93.8387 373.482 93.6892 372.74 93.6892C371.998 93.6892 371.263 93.8387 370.58 94.1288C369.897 94.4189 369.28 94.8437 368.764 95.3777C368.249 95.9117 367.847 96.5441 367.581 97.2371C367.316 97.93 367.192 98.6694 367.219 99.411C367.219 100.354 366.937 101.241 367.36 102.015L378.634 101.044Z" fill="white" stroke="#1D2029" stroke-width="0.703779" stroke-linecap="round" stroke-linejoin="round"/>
<path d="M368.824 101.874L371.231 102.522L375.299 102.156L376.904 101.213L368.824 101.874Z" fill="white" stroke="#1D2029" stroke-width="0.703779" stroke-linecap="round" stroke-linejoin="round"/>
<path d="M371.773 94.6886L371.879 97.5671L370.387 98.4397L370.598 100.748" stroke="#1D2029" stroke-width="0.35189" stroke-linecap="round" stroke-linejoin="round"/>
<path d="M372.955 97.5107L374.243 97.9752L374.553 100.495" stroke="#1D2029" stroke-width="0.35189" stroke-linecap="round" stroke-linejoin="round"/>
<path d="M367.375 102.015C367.489 102.495 367.639 102.966 367.825 103.423C368.021 103.788 368.292 104.107 368.621 104.359L368.149 101.867L367.375 102.015Z" fill="white" stroke="#1D2029" stroke-width="0.703779" stroke-linecap="round" stroke-linejoin="round"/>
<path d="M377.74 101.093L377.648 103.958C377.888 103.477 378.077 102.972 378.211 102.451C378.271 102.015 378.302 101.576 378.303 101.135L377.74 101.093Z" fill="white" stroke="#1D2029" stroke-width="0.703779" stroke-linecap="round" stroke-linejoin="round"/>
<path d="M372.238 106.062C372.567 106.227 372.922 106.334 373.287 106.378C373.702 106.378 374.209 105.837 374.209 105.837" stroke="#1D2029" stroke-width="0.35189" stroke-linecap="round" stroke-linejoin="round"/>
<path d="M372.146 107.364C372.515 107.535 372.92 107.61 373.325 107.581C373.73 107.553 374.121 107.423 374.462 107.202" stroke="#1D2029" stroke-width="0.35189" stroke-linecap="round" stroke-linejoin="round"/>
<path d="M369.789 104.056C370.041 104.265 370.354 104.387 370.681 104.405C371.008 104.423 371.332 104.335 371.605 104.155" stroke="#1D2029" stroke-width="0.35189" stroke-linecap="round" stroke-linejoin="round"/>
<path d="M374.412 103.845C374.686 104.023 375.009 104.108 375.335 104.087C375.661 104.067 375.971 103.943 376.221 103.732" stroke="#1D2029" stroke-width="0.35189" stroke-linecap="round" stroke-linejoin="round"/>
<path d="M369.598 103.085C370.045 102.689 370.627 102.48 371.223 102.501" stroke="#1D2029" stroke-width="0.35189" stroke-linecap="round" stroke-linejoin="round"/>
<path d="M374.412 102.381C374.738 102.24 375.094 102.181 375.448 102.208C375.802 102.235 376.145 102.347 376.446 102.536" stroke="#1D2029" stroke-width="0.35189" stroke-linecap="round" stroke-linejoin="round"/>
<path d="M361.258 112.896L356.113 130.624L360.125 132.327L363.334 124.36L361.258 112.896Z" fill="white" stroke="#1D2029" stroke-width="0.703779" stroke-linecap="round" stroke-linejoin="round"/>
<path d="M362.639 122.136L363.145 125.542L384.822 124.831L385.061 121.39L362.639 122.136Z" fill="white" stroke="#1D2029" stroke-width="0.703779" stroke-linecap="round" stroke-linejoin="round"/>
<path d="M364.553 134.98L384.153 134.332L384.392 130.891L364.039 131.567L364.553 134.98Z" fill="white" stroke="#1D2029" stroke-width="0.703779" stroke-linecap="round" stroke-linejoin="round"/>
<path d="M360.033 127.893L370.259 133.347L369.408 135.733L358.147 133.544C357.595 133.45 357.093 133.169 356.723 132.749C356.352 132.329 356.137 131.795 356.113 131.236V130.638L356.817 128.245" fill="white"/>
<path d="M360.033 127.893L370.259 133.347L369.408 135.733L358.147 133.544C357.595 133.45 357.093 133.169 356.723 132.749C356.352 132.329 356.137 131.795 356.113 131.236V130.638L356.817 128.245" stroke="#1D2029" stroke-width="0.703779" stroke-linecap="round" stroke-linejoin="round"/>
<path d="M375.819 137.887C375.819 137.887 375.313 139.716 379.106 142.264L381.274 138.478C381.274 138.478 377.931 136.162 375.819 137.887Z" fill="white" stroke="#1D2029" stroke-width="0.703779" stroke-linecap="round" stroke-linejoin="round"/>
<path d="M377.226 139.16C377.138 139.16 377.051 139.138 376.973 139.097L373.081 137.225C372.94 137.157 372.832 137.035 372.781 136.888C372.729 136.74 372.739 136.578 372.807 136.437C372.875 136.296 372.996 136.188 373.144 136.137C373.292 136.085 373.454 136.095 373.595 136.162L377.487 138.034C377.609 138.092 377.708 138.19 377.767 138.311C377.826 138.433 377.841 138.571 377.811 138.703C377.781 138.834 377.706 138.951 377.6 139.035C377.493 139.118 377.361 139.162 377.226 139.16Z" fill="#1D2029" stroke="#1D2029" stroke-width="0.35189" stroke-linecap="round" stroke-linejoin="round"/>
<path d="M370.258 133.347L374.354 135.135L375.543 137.781L374.438 138.372L373.84 137.95L371.623 138.034L369.406 135.733L370.258 133.347Z" fill="white" stroke="#1D2029" stroke-width="0.703779" stroke-linecap="round" stroke-linejoin="round"/>
<path d="M275.742 215.112C275.742 215.112 276.601 215.957 276.608 216.379C276.615 216.802 276.643 217.336 276.643 217.336L278.41 218.793L277.417 219.912C277.417 219.912 277.685 224.219 277.417 224.501C277.15 224.782 274.236 224.585 274.236 224.585L274.637 227.534L268.275 226.246L268.198 223.487C268.198 223.487 265.53 221.439 264.742 218.948L275.742 215.112Z" fill="white" stroke="#1D2029" stroke-width="0.703779" stroke-linecap="round" stroke-linejoin="round"/>
<path d="M276.044 217.463C276.114 217.801 276.044 218.111 275.875 218.167C275.706 218.223 275.523 217.949 275.46 217.604C275.396 217.259 275.46 216.956 275.629 216.9C275.797 216.844 275.98 217.097 276.044 217.463Z" fill="#1D2029"/>
<path d="M277.12 221.214C277.12 221.214 275.917 221.82 275.389 220.954" stroke="#1D2029" stroke-width="0.35189" stroke-linecap="round" stroke-linejoin="round"/>
<path d="M274.988 216.548C274.988 216.548 275.453 215.95 275.988 216.02" stroke="#1D2029" stroke-width="0.35189" stroke-linecap="round" stroke-linejoin="round"/>
<path d="M264.742 218.948C265.53 221.439 268.198 223.487 268.198 223.487L272.364 221.32C272.364 221.32 270.379 221.517 269.922 220.989C269.465 220.461 269.317 217.836 270.372 217.78C270.715 217.79 271.05 217.88 271.352 218.043C271.654 218.205 271.913 218.436 272.111 218.716L272.934 218.603L272.786 216.4L272.843 216.105L264.742 218.948Z" fill="#1D2029" stroke="#1D2029" stroke-width="0.703779" stroke-linecap="round" stroke-linejoin="round"/>
<path d="M279.803 214.317C279.803 213.712 276.037 214.064 275.875 213.444C275.388 211.941 274.344 210.681 272.958 209.923C271.572 209.164 269.948 208.964 268.419 209.363C266.89 209.762 265.572 210.731 264.734 212.071C263.896 213.41 263.601 215.02 263.911 216.569C264.179 217.597 264.122 218.645 264.798 219.384L279.803 214.317Z" fill="white" stroke="#1D2029" stroke-width="0.703779" stroke-linecap="round" stroke-linejoin="round"/>
<path d="M267.486 210.158L268.408 213.254L267.035 214.627L267.915 217.076" stroke="#1D2029" stroke-width="0.35189" stroke-linecap="round" stroke-linejoin="round"/>
<path d="M269.562 212.896L271.09 213.036L272.138 215.682" stroke="#1D2029" stroke-width="0.35189" stroke-linecap="round" stroke-linejoin="round"/>
<path d="M267.521 218.427L265.297 221.784L266.662 222.924L269.294 217.857L267.521 218.427Z" fill="white" stroke="#1D2029" stroke-width="0.703779" stroke-linecap="round" stroke-linejoin="round"/>
<path d="M288.148 242.208L287.867 239.111L278 242.025L278.436 247.662L288.148 242.208Z" fill="white" stroke="#1D2029" stroke-width="0.703779" stroke-linecap="round" stroke-linejoin="round"/>
<path d="M266.951 224.768L275.263 228.287C276.511 228.811 277.566 229.709 278.283 230.857C279 232.005 279.344 233.347 279.267 234.699L277.993 256.509L263.988 256.023L264.157 231.595L266.951 224.768Z" fill="#1960BB" stroke="#1D2029" stroke-width="0.703779" stroke-linecap="round" stroke-linejoin="round"/>
<path d="M278.437 247.662L264.164 247.817V244.826H278.592L278.437 247.662Z" fill="white" stroke="#1D2029" stroke-width="0.703779" stroke-linecap="round" stroke-linejoin="round"/>
<path d="M278.141 253.848H264.03V250.85H278.303L278.141 253.848Z" fill="white" stroke="#1D2029" stroke-width="0.703779" stroke-linecap="round" stroke-linejoin="round"/>
<path d="M262.877 312.544L261.321 317.737L264.643 320.109H269.858L270.33 318.688L266.726 316.034V313.951L262.877 312.544Z" fill="white" stroke="#1D2029" stroke-width="0.703779" stroke-linecap="round" stroke-linejoin="round"/>
<path d="M270.209 285.019L262.876 312.544L266.726 313.951L270.695 306.843L270.209 285.019Z" fill="#1D2029" stroke="#1D2029" stroke-width="0.703779" stroke-linecap="round" stroke-linejoin="round"/>
<path d="M278.022 256.523L279.162 281.605L274.503 314.803L269.317 315.288L269.88 280.627L263.693 262.223L264.017 256.037L278.022 256.523Z" fill="#1D2029" stroke="#1D2029" stroke-width="0.703779" stroke-linecap="round" stroke-linejoin="round"/>
<path d="M274.503 314.803L278.008 317.266L281.231 318.596V320.109H269.661L269.316 315.288L274.503 314.803Z" fill="white" stroke="#1D2029" stroke-width="0.703779" stroke-linecap="round" stroke-linejoin="round"/>
<path d="M316.202 194.013L319.629 187.785L315.125 184.132L317.321 181.247L319.7 183.316" stroke="#1D2029" stroke-width="0.703779" stroke-linecap="round" stroke-linejoin="round"/>
<path d="M291.534 238.83L293.504 239.484L292.097 242.489L288.149 242.208L287.867 239.111L291.534 238.83Z" fill="white" stroke="#1D2029" stroke-width="0.703779" stroke-linecap="round" stroke-linejoin="round"/>
<path d="M280.773 258.353L316.202 194.013" stroke="#1D2029" stroke-width="1.40756" stroke-linecap="round" stroke-linejoin="round"/>
<path d="M325.851 190.487C325.423 190.486 325.01 190.329 324.69 190.044L318.574 184.639C318.224 184.33 318.011 183.895 317.982 183.429C317.953 182.963 318.11 182.504 318.419 182.154C318.728 181.804 319.163 181.592 319.629 181.562C320.095 181.533 320.553 181.691 320.903 182L327.019 187.405C327.289 187.641 327.48 187.954 327.567 188.302C327.653 188.65 327.632 189.016 327.505 189.351C327.378 189.687 327.151 189.975 326.856 190.178C326.56 190.381 326.21 190.489 325.851 190.487Z" fill="#1960BB" stroke="#1D2029" stroke-width="0.703779" stroke-linecap="round" stroke-linejoin="round"/>
<path d="M272.981 228.414C272.981 228.414 270.068 230.596 269.885 231.693C269.702 232.791 271.707 239.512 273.706 240.603C275.705 241.694 278.07 238.239 278.07 238.239L287.141 236.24L300.781 222.594L299.69 220.778L285.319 229.505L277.134 229.329C277.134 229.329 274.431 226.781 272.981 228.414Z" fill="white" stroke="#1D2029" stroke-width="0.703779" stroke-linecap="round" stroke-linejoin="round"/>
<path d="M278.071 238.239L273.518 238.654" stroke="#1D2029" stroke-width="0.35189" stroke-linecap="round" stroke-linejoin="round"/>
<path d="M299.719 220.778L301.844 218.772H305.405L305.595 219.99L304.561 220.454L304.188 222.523L300.817 222.594L299.719 220.778Z" fill="white" stroke="#1D2029" stroke-width="0.703779" stroke-linecap="round" stroke-linejoin="round"/>
<path d="M288.81 240.99L289.936 240.047V240.99H290.971L292.005 239.294L291.252 238.168L287.867 239.111" fill="white"/>
<path d="M288.81 240.99L289.936 240.047V240.99H290.971L292.005 239.294L291.252 238.168L287.867 239.111" stroke="#1D2029" stroke-width="0.703779" stroke-linecap="round" stroke-linejoin="round"/>
<path d="M196.996 228.097L202.865 228.956L201.085 258.901L182.786 258.416L180.781 231.919C180.743 231.448 180.801 230.975 180.95 230.528C181.099 230.081 181.337 229.668 181.648 229.314C181.96 228.96 182.34 228.672 182.765 228.468C183.19 228.264 183.652 228.147 184.124 228.125L186.988 227.977L196.996 228.097Z" fill="white" stroke="#1D2029" stroke-width="0.703779" stroke-linecap="round" stroke-linejoin="round"/>
<path d="M187.791 221.587C187.958 222.63 188.329 223.629 188.882 224.529C189.642 225.507 190.078 226.162 190.078 226.162V226.95H195.406V225.753C195.406 225.753 196.602 225.641 197.039 223.684C197.315 222.293 197.461 220.88 197.475 219.462L187.791 221.587Z" fill="white" stroke="#1D2029" stroke-width="0.703779" stroke-linecap="round" stroke-linejoin="round"/>
<path d="M186.891 220.975L188.96 225.479H194.914L196.3 221.566L186.891 220.975Z" fill="#1D2029" stroke="#1D2029" stroke-width="0.703779" stroke-linecap="round" stroke-linejoin="round"/>
<path d="M190.169 210.552C190.169 210.552 192.132 208.321 193.378 208.441C194.624 208.56 196.369 208.87 197.059 209.567C197.749 210.263 197.615 212.762 197.615 212.762C197.615 212.762 192.836 210.13 190.169 210.552Z" fill="white" stroke="#1D2029" stroke-width="0.703779" stroke-linecap="round" stroke-linejoin="round"/>
<path d="M190.17 211.53C186.587 213.1 185.44 217.899 186.89 220.975C187.394 222.068 188.204 222.992 189.222 223.634C190.24 224.276 191.422 224.609 192.626 224.592C197.63 224.254 199.361 219.448 198.347 215.64C197.587 212.825 194.561 210.369 191.141 211.206C190.808 211.286 190.483 211.394 190.17 211.53Z" fill="white" stroke="#1D2029" stroke-width="0.703779" stroke-linecap="round" stroke-linejoin="round"/>
<path d="M190.17 210.552C186.587 212.121 185.44 216.921 186.89 219.997C187.394 221.09 188.204 222.013 189.222 222.655C190.24 223.298 191.422 223.63 192.626 223.614C197.63 223.276 199.361 218.469 198.347 214.662C197.587 211.847 194.561 209.391 191.141 210.228C190.808 210.307 190.483 210.416 190.17 210.552Z" fill="white" stroke="#1D2029" stroke-width="0.703779" stroke-linecap="round" stroke-linejoin="round"/>
<path d="M192.871 210.242C192.871 210.242 191.344 211.227 190.577 214.887L191.379 215.823L190.943 217.892" fill="white"/>
<path d="M192.871 210.242C192.871 210.242 191.344 211.227 190.577 214.887L191.379 215.823L190.943 217.892" stroke="#1D2029" stroke-width="0.703779" stroke-linecap="round" stroke-linejoin="round"/>
<path d="M195.477 211.087C194.386 212.293 193.738 213.834 193.64 215.457L195.477 211.087Z" fill="white"/>
<path d="M195.477 211.087C194.386 212.293 193.738 213.834 193.64 215.457" stroke="#1D2029" stroke-width="0.703779" stroke-linecap="round" stroke-linejoin="round"/>
<path d="M195.405 226.95C195.405 226.95 192.675 226.077 190.971 226.302C189.558 226.637 188.213 227.213 186.995 228.006L196.996 228.125L195.405 226.95Z" fill="white" stroke="#1D2029" stroke-width="0.703779" stroke-linecap="round" stroke-linejoin="round"/>
<path d="M180.978 229.955L174.863 245.642C174.576 246.303 174.499 247.037 174.643 247.743C174.786 248.449 175.143 249.094 175.665 249.591C176.223 250.13 176.945 250.469 177.716 250.555C178.487 250.642 179.266 250.471 179.93 250.069L184.089 247.571L180.978 229.955Z" fill="white" stroke="#1D2029" stroke-width="0.703779" stroke-linecap="round" stroke-linejoin="round"/>
<path d="M183.603 243.038L180.204 247.085" stroke="#1D2029" stroke-width="0.703779" stroke-linecap="round" stroke-linejoin="round"/>
<path d="M196.989 228.097L201.733 227.175L207.722 224.261L212.254 210.503L215.653 211.474L212.902 228.794L203.675 239.477L201.571 245.304" fill="white"/>
<path d="M196.989 228.097L201.733 227.175L207.722 224.261L212.254 210.503L215.653 211.474L212.902 228.794L203.675 239.477L201.571 245.304" stroke="#1D2029" stroke-width="0.703779" stroke-linecap="round" stroke-linejoin="round"/>
<path d="M212.253 210.503L211.93 207.427L213.548 204.999C213.548 204.999 215.167 202.247 215.815 202.571C216.462 202.895 215.976 203.38 215.815 204.028C215.653 204.675 215.005 206.294 215.005 206.294C215.396 206.508 215.731 206.81 215.984 207.177C216.237 207.544 216.401 207.964 216.462 208.405C216.482 209.486 216.201 210.55 215.653 211.481L212.253 210.503Z" fill="white" stroke="#1D2029" stroke-width="0.703779" stroke-linecap="round" stroke-linejoin="round"/>
<path d="M200.276 227.337L201.895 243.2L201.086 258.902L182.788 258.416L180.732 231.306C180.698 230.919 180.745 230.53 180.869 230.162C180.993 229.793 181.192 229.455 181.453 229.167C181.714 228.88 182.032 228.65 182.386 228.491C182.741 228.332 183.124 228.248 183.512 228.245L195.575 227.985L200.276 227.337Z" fill="#1960BB" stroke="#1D2029" stroke-width="0.703779" stroke-linecap="round" stroke-linejoin="round"/>
<path d="M201.571 250.161H182.224L181.83 246.276H201.571V250.161Z" fill="white" stroke="#1D2029" stroke-width="0.703779" stroke-linecap="round" stroke-linejoin="round"/>
<path d="M201.275 256.058H182.702L182.371 252.173H201.486L201.275 256.058Z" fill="white" stroke="#1D2029" stroke-width="0.703779" stroke-linecap="round" stroke-linejoin="round"/>
<path d="M199.086 315.288H203.577L202.106 267.023L201.085 258.902L182.794 258.416L181.295 266.326L179.796 315.288H184.293L191.218 271.943H192.154L199.086 315.288Z" fill="#1D2029" stroke="#1D2029" stroke-width="0.703779" stroke-linecap="round" stroke-linejoin="round"/>
<path d="M179.796 315.288L179.684 319.919H183.948L184.293 315.288H179.796Z" fill="white" stroke="#1D2029" stroke-width="0.703779" stroke-linecap="round" stroke-linejoin="round"/>
<path d="M203.619 315.288L203.732 319.919H199.474L199.129 315.288H203.619Z" fill="white" stroke="#1D2029" stroke-width="0.703779" stroke-linecap="round" stroke-linejoin="round"/>
<path d="M164.629 236.099L172.011 224.838C172.011 224.838 162.215 225.957 157.091 227.203C146 229.892 121.065 222.945 121.065 222.945L119.552 252.99C119.552 252.99 131.192 255.763 138.293 257.212C145.395 258.662 158.844 254.798 158.844 254.798L164.629 236.099Z" fill="white" stroke="#1D2029" stroke-width="0.703779" stroke-linecap="round" stroke-linejoin="round"/>
<path d="M141.883 226.95C141.883 226.95 139.152 226.077 137.449 226.302C136.035 226.637 134.69 227.213 133.473 228.005L143.473 228.125L141.883 226.95Z" fill="white" stroke="#1D2029" stroke-width="0.703779" stroke-linecap="round" stroke-linejoin="round"/>
<path d="M145.563 315.288H150.06L148.582 267.023L147.562 258.902L129.27 258.416L127.771 266.326L126.279 315.288H130.769L137.702 271.943H138.638L145.563 315.288Z" fill="#1D2029" stroke="#1D2029" stroke-width="0.703779" stroke-linecap="round" stroke-linejoin="round"/>
<path d="M126.28 315.288L126.16 319.919H130.425L130.77 315.288H126.28Z" fill="white" stroke="#1D2029" stroke-width="0.703779" stroke-linecap="round" stroke-linejoin="round"/>
<path d="M150.104 315.288L150.216 319.919H145.951L145.606 315.288H150.104Z" fill="white" stroke="#1D2029" stroke-width="0.703779" stroke-linecap="round" stroke-linejoin="round"/>
<path d="M149.343 228.956L155.536 244.108L162.011 238.597L163.665 240.005L156.134 249.45C155.782 249.89 155.323 250.233 154.801 250.447C154.279 250.662 153.711 250.74 153.15 250.674C152.612 250.614 152.096 250.423 151.649 250.116C151.202 249.809 150.838 249.396 150.589 248.915L146.577 241.244L149.343 228.956Z" fill="white" stroke="#1D2029" stroke-width="0.703779" stroke-linecap="round" stroke-linejoin="round"/>
<path d="M161.996 238.597L162.552 235.979L164.889 235.839L166.409 234.325L166.268 235.705L163.65 239.977L161.996 238.597Z" fill="white" stroke="#1D2029" stroke-width="0.703779" stroke-linecap="round" stroke-linejoin="round"/>
<path d="M122.268 236.5L122.12 233.023H120.607L120.487 231.419L119.045 235.05L118.854 238.492L120.487 238.872L122.268 236.5Z" fill="white" stroke="#1D2029" stroke-width="0.703779" stroke-linecap="round" stroke-linejoin="round"/>
<path d="M118.855 238.492L117.384 248.711C117.49 249.076 117.707 249.4 118.004 249.638C118.301 249.876 118.665 250.017 119.045 250.041C120.494 250.266 121.782 248.633 121.782 248.633L120.487 238.872L118.855 238.492Z" fill="white" stroke="#1D2029" stroke-width="0.703779" stroke-linecap="round" stroke-linejoin="round"/>
<path d="M127.42 230.068C127.42 230.068 117.025 246.571 117.025 247.303C117.025 248.035 116.723 251.385 120.157 250.822C121.431 250.611 129.243 240.969 129.243 240.969L127.42 230.068Z" fill="white" stroke="#1D2029" stroke-width="0.703779" stroke-linecap="round" stroke-linejoin="round"/>
<path d="M149.343 228.956L145.873 243.418L148.491 263.124L127.378 263.399L129.996 244.249L127.181 231.306C127.146 230.916 127.194 230.524 127.32 230.153C127.446 229.783 127.648 229.442 127.913 229.154C128.178 228.866 128.5 228.637 128.858 228.48C129.217 228.323 129.604 228.243 129.996 228.245L142.059 227.984L149.343 228.956Z" fill="#1960BB" stroke="#1D2029" stroke-width="0.703779" stroke-linecap="round" stroke-linejoin="round"/>
<path d="M147.47 255.397H128.504L128.004 259.056H147.956L147.47 255.397Z" fill="white" stroke="#1D2029" stroke-width="0.703779" stroke-linecap="round" stroke-linejoin="round"/>
<path d="M128.855 252.835H147.126L146.64 249.182H129.355L128.855 252.835Z" fill="white" stroke="#1D2029" stroke-width="0.703779" stroke-linecap="round" stroke-linejoin="round"/>
<path d="M136.646 210.552C136.646 210.552 138.61 208.321 139.856 208.44C141.101 208.56 142.847 208.87 143.544 209.566C144.24 210.263 144.1 212.762 144.1 212.762C144.1 212.762 139.349 210.13 136.646 210.552Z" fill="white" stroke="#1D2029" stroke-width="0.703779" stroke-linecap="round" stroke-linejoin="round"/>
<path d="M134.268 221.587C134.435 222.63 134.805 223.629 135.358 224.529C136.119 225.507 136.555 226.162 136.555 226.162V226.95H141.882V225.753C141.882 225.753 143.079 225.641 143.515 223.684C143.792 222.293 143.938 220.88 143.952 219.462L134.268 221.587Z" fill="white" stroke="#1D2029" stroke-width="0.703779" stroke-linecap="round" stroke-linejoin="round"/>
<path d="M133.902 222.382C133.998 222.581 134.053 222.798 134.064 223.018C134.075 223.239 134.042 223.46 133.965 223.668C133.889 223.875 133.772 224.065 133.621 224.226C133.47 224.388 133.287 224.517 133.085 224.606C131.558 225.43 130.27 228.59 131.438 230.117C132.607 231.644 133.902 233.636 132.614 235.156C131.431 236.427 130.479 237.894 129.799 239.491C129.243 240.99 129.334 245.121 134.725 248.281C140.116 251.441 145.753 243.644 146.563 241.244C147.372 238.844 142.46 235.304 142.46 234.361C142.46 233.418 144.254 231.933 143.867 230.025C143.48 228.118 142.924 227.098 142.811 226.162C142.699 225.226 143.206 223.121 142.811 221.594C142.417 220.067 134.725 220.158 133.902 222.382Z" fill="#1D2029" stroke="#1D2029" stroke-width="0.703779" stroke-linecap="round" stroke-linejoin="round"/>
<path d="M136.647 211.53C133.065 213.1 131.918 217.899 133.367 220.975C133.871 222.068 134.681 222.992 135.699 223.634C136.717 224.276 137.9 224.609 139.103 224.592C144.107 224.254 145.838 219.448 144.825 215.64C144.065 212.825 141.039 210.369 137.618 211.206C137.286 211.288 136.961 211.396 136.647 211.53Z" fill="white" stroke="#1D2029" stroke-width="0.703779" stroke-linecap="round" stroke-linejoin="round"/>
<path d="M136.647 210.552C133.065 212.121 131.918 216.921 133.367 219.997C133.871 221.09 134.681 222.013 135.699 222.655C136.717 223.298 137.9 223.63 139.103 223.614C144.107 223.276 145.838 218.469 144.825 214.662C144.065 211.847 141.039 209.391 137.618 210.228C137.286 210.309 136.961 210.418 136.647 210.552Z" fill="white" stroke="#1D2029" stroke-width="0.703779" stroke-linecap="round" stroke-linejoin="round"/>
<path d="M139.349 210.242C139.349 210.242 137.822 211.227 137.055 214.887L137.857 215.823L137.421 217.892" fill="white"/>
<path d="M139.349 210.242C139.349 210.242 137.822 211.227 137.055 214.887L137.857 215.823L137.421 217.892" stroke="#1D2029" stroke-width="0.703779" stroke-linecap="round" stroke-linejoin="round"/>
<path d="M141.953 211.087C140.862 212.293 140.214 213.834 140.116 215.457L141.953 211.087Z" fill="white"/>
<path d="M141.953 211.087C140.862 212.293 140.214 213.834 140.116 215.457" stroke="#1D2029" stroke-width="0.703779" stroke-linecap="round" stroke-linejoin="round"/>
<path d="M298.299 303.423H285.652V320.109H298.299V303.423Z" fill="#1960BB" stroke="#1D2029" stroke-width="0.703779" stroke-linecap="round" stroke-linejoin="round"/>
<path d="M294.611 308.342H285.828V316.07H294.611V308.342Z" fill="white" stroke="#1D2029" stroke-width="0.703779" stroke-linecap="round" stroke-linejoin="round"/>
<path d="M290.572 305.351C290.572 305.351 293.204 314.662 298.314 314.5C303.423 314.338 298.49 307.462 298.49 307.462" stroke="#1D2029" stroke-width="0.703779" stroke-linecap="round" stroke-linejoin="round"/>
<path d="M328.168 315.19L312.002 317.829H299.707V320.109H328.168V315.19Z" fill="#1960BB" stroke="#1D2029" stroke-width="0.703779" stroke-linecap="round" stroke-linejoin="round"/>
<path d="M52.0811 319.849L448.309 319.849" stroke="#1D2029" stroke-width="0.703779" stroke-miterlimit="10"/>
<defs>
<filter id="filter0_dd_2776_13139" x="57.8488" y="0.369766" width="384.302" height="395.563" filterUnits="userSpaceOnUse" color-interpolation-filters="sRGB">
<feFlood flood-opacity="0" result="BackgroundImageFix"/>
<feColorMatrix in="SourceAlpha" type="matrix" values="0 0 0 0 0 0 0 0 0 0 0 0 0 0 0 0 0 0 127 0" result="hardAlpha"/>
<feMorphology radius="22.5209" operator="erode" in="SourceAlpha" result="effect1_dropShadow_2776_13139"/>
<feOffset dy="33.7814"/>
<feGaussianBlur stdDeviation="25.3361"/>
<feComposite in2="hardAlpha" operator="out"/>
<feColorMatrix type="matrix" values="0 0 0 0 0 0 0 0 0 0.45 0 0 0 0 1 0 0 0 0.1 0"/>
<feBlend mode="normal" in2="BackgroundImageFix" result="effect1_dropShadow_2776_13139"/>
<feColorMatrix in="SourceAlpha" type="matrix" values="0 0 0 0 0 0 0 0 0 0 0 0 0 0 0 0 0 0 127 0" result="hardAlpha"/>
<feOffset/>
<feGaussianBlur stdDeviation="2.81512"/>
<feComposite in2="hardAlpha" operator="out"/>
<feColorMatrix type="matrix" values="0 0 0 0 0.0784314 0 0 0 0 0.572549 0 0 0 0 0.937255 0 0 0 0.25 0"/>
<feBlend mode="normal" in2="effect1_dropShadow_2776_13139" result="effect2_dropShadow_2776_13139"/>
<feBlend mode="normal" in="SourceGraphic" in2="effect2_dropShadow_2776_13139" result="shape"/>
</filter>
</defs>
</svg>
